<svg xmlns="http://www.w3.org/2000/svg" viewBox="0 0 744.0945 1052.3622">
<defs>
<marker orient="auto" overflow="visible" refX="0.0" refY="0.0" id="TriangleOutM">
<path fill-rule="evenodd" stroke="#000" stroke-width="1.25" d="m5.77,0l-8.65,5-0-10 8.65,5z" transform="scale(.4)"/>
</marker>
</defs>
<path fill-opacity=".144" d="m324.562,1011.35a67.1751,13.435 0 1,1 -134.3503,0 67.1751,13.435 0 1,1 134.3503,0z" transform="translate(0 2.82843)"/>
<g fill="#2ee68d">
<path d="m97,540.3062c-4.978,6.6038-24.6103,17.7547-31.5,5.75-6.8897-12.0047-11.8873-15-21-15-9.1127,0-16.5,7.3873-16.5,16.5 0,9.1127 7.3873,16.5 16.5,16.5 18.9922,4.0358 2.6519,35.685-4.9999,36.5-10.4934,0-19,8.5066-19,19 0,9.9541 7.0149,9.5585 8.7442,19.083 1.7293,9.5245-6.7442,11.7774-6.7442,21.917 0,12.9787 10.5213,23.5 23.5,23.5 11.4329,0 20.1733-14.3084 23.0625-19 8.7858-14.2667 33.6356-12.4399 50.3716-12.3226 8.4637,.2867 17.9081,11.74 18.0407,19.4994 .1326,7.7594 8.0881,17.0606 16.5251,18.8232 10.2716,2.1459 18.8157-8.5082 19-19 .1751-9.968-10.8836-17.1084-19.8839-21.2981-15.088-8.8685-12.1991-22.1364-11.3539-25.1103 6.7972-23.6098 13.2519-20.7585 34.7378-19.5916 8.291,.072 15-6.7157 15-15 0-8.2843-1.9235-14.2014-15-15-13.0765-.7986-27.4819,2.4272-35.75-4.75-8.2681-7.1772-4.849-18.0818-.25-26.75 4.599-8.6682-9.402-21-21-21-10.456,.0193-17.3548,9.851-22.5,16.75z"/>
<path d="m291.4688,555.5562c-1.5043-.0403-3.0048,.0402-4.4688,.25 10.5039,7.5497 10.7508,15.9515 5.9062,24.0312-5.8885-6.2558-11.2956-13.2105-24.4062-12.2812 7.449,5.2314 6.9649,11.0039 3.7188,17.3125-13.5256-18.1419-26.1559-19.1814-45.2188-7.3125 24.1447-1.3045 24.6392,9.6113 25,24.7188-3.711-3.4112-11.6852-9.2734-21.25-7.4688-13.25,2.5-12.125,16.0938-12.125,16.0938 20.2351-12.8383 20.0121,20.9403 19.25,27.9062-1.1799,30.4677 14.6078,51.4158 58.375,51.25 43.7672-.1658 59.6276-19.8865 58.375-51.25-.2772-6.9394-2-13.555-4.9062-19.5938-1.997-7.0061-2.3788-12.5466-.4688-17.1562 2.9086-7.0193 17.6748-13.7306 18.5-11.75-1.4344-4.5423-17.141-6.9757-26.4062-2.1875 1.3351-8.1117 4.8664-11.6797 11.4062-9.1875-2.141-8.8409-16.9971-9.6338-25.7188,0-6.053-12.0417-21.4067-22.9955-35.5625-23.375z"/>
<path d="m469.2193,538.2903c-27.6142,0-50,22.3858-50,50v105.75h100v-105.75c0-27.6142-22.3858-50-50-50z"/>
</g>
<path fill="#fff" d="m590.5,448.3622a51,51 0 1,1 -102,0 51,51 0 1,1 102,0z" transform="matrix(.54365 0 0 .54365 175.92027 344.52546)"/>
<path d="m590.5,448.3622a51,51 0 1,1 -102,0 51,51 0 1,1 102,0z" transform="matrix(.3842 0 0 .3842 261.94119 416.01486)"/>
<g transform="translate(-111 105.68124)">
<path fill="#d4eaf6" d="m584.5,623.3622c0,13.5145-8.5066,24.4703-19,24.4703-10.4934,0-19-10.9557-19-24.4703 0-13.5145 8.5066-24.4702 19-24.4702 10.4934,0 19,10.9557 19,24.4702z" transform="matrix(.65771 0 0 .65771 221.5372 123.29593)"/>
<path fill="#c2deee" d="m594.2188,526.5625c-2.8908,0-5.2188,2.9957-5.2188,6.7188 0,3.723 2.328,6.75 5.2188,6.75h3c2.8908,0 5.25-3.027 5.25-6.75 0-3.723-2.3592-6.7188-5.25-6.7188z"/>
<path fill="#edf8fe" d="m584.5,623.3622c0,13.5145-8.5066,24.4703-19,24.4703-10.4934,0-19-10.9557-19-24.4703 0-13.5145 8.5066-24.4702 19-24.4702 10.4934,0 19,10.9557 19,24.4702z" transform="matrix(.27548 0 0 .27548 441.4372 361.56248)"/>
<path fill="#80c9f1" d="m608.7151,521.875c-6.8428,0-12.375,5.0951-12.375,11.4062 0,6.3111 5.5322,11.4375 12.375,11.4375 6.8428,0 12.4062-5.1264 12.4062-11.4375 0-6.3111-5.5634-11.4062-12.4062-11.4062zm0,4.0312c4.4127,0 8,3.3052 8,7.375 0,4.0698-3.5873,7.375-8,7.375-4.4127,0-8-3.3052-8-7.375 0-4.0698 3.5873-7.375 8-7.375z"/>
<path fill-opacity=".11" d="m608.7188,524.6562c-4.4127,0-8,3.3052-8,7.375 0,.1697 .019,.3331 .0313,.5 .4103-3.7165 3.8319-6.625 7.9688-6.625 4.1369,0 7.5585,2.9085 7.9688,6.625 .0123-.1669 .0313-.3303 .0313-.5 0-4.0698-3.5873-7.375-8-7.375zm-12.3438,8c-.0125,.2102-.0313,.4118-.0313,.625 0,6.3111 5.5322,11.4375 12.375,11.4375 6.8428,0 12.4062-5.1264 12.4062-11.4375 0-.2132-.0187-.4148-.0313-.625-.3584,6.0163-5.7633,10.8125-12.375,10.8125-6.6117,0-11.9873-4.7962-12.3438-10.8125z"/>
</g>
<g transform="translate(-115.4693 106.44724)">
<path fill="#fff" d="m590.5,448.3622c0,28.1665-22.8335,51-51,51-28.1665,0-51-22.8335-51-51 0-28.1665 22.8335-51 51-51 28.1665,0 51,22.8335 51,51z" transform="matrix(.30836 0 0 .30836 223.86145 392.5912)"/>
<path d="m590.5,448.3622c0,28.1665-22.8335,51-51,51-28.1665,0-51-22.8335-51-51 0-28.1665 22.8335-51 51-51 28.1665,0 51,22.8335 51,51z" transform="matrix(.21792 0 0 .21792 272.65212 433.13965)"/>
<path fill="#fff" d="m590.5,448.3622c0,28.1665-22.8335,51-51,51-28.1665,0-51-22.8335-51-51 0-28.1665 22.8335-51 51-51 28.1665,0 51,22.8335 51,51z" transform="matrix(.30836 0 0 .30836 266.86145 392.5912)"/>
<path d="m590.5,448.3622c0,28.1665-22.8335,51-51,51-28.1665,0-51-22.8335-51-51 0-28.1665 22.8335-51 51-51 28.1665,0 51,22.8335 51,51z" transform="matrix(.21792 0 0 .21792 315.65212 433.13965)"/>
</g>
<path fill-opacity=".182" d="m287,555.8062c10.4617,7.5194 10.6905,15.9813 5.9062,24.0312 .5691,.6594 1.2045,1.2387 1.75,1.875 7.4817-7.5775 13.2129-16.3822-7.6562-25.9062zm-18.5,11.75c7.449,5.2314 6.9649,11.0039 3.7188,17.3125 5.3116-5.6201 5.9068-11.3556-3.7188-17.3125zm73.8438,4.4375c-5.0027-.0978-10.9612,2.2462-15.3034,6.9274 .2574,.6439 .766,2.3457 .9543,2.9975 7.3589-8.1285 18.3667-11.3241 22.9429-6.4249-1.9383-2.2092-5.0611-3.431-8.5938-3.5zm-105.7188,4.7188c-2.7426,.0161-5.9312,.2893-9.625,.8438 23.5003-1.2697 24.5214,10.1425 24.8958,24.6234 1.1351,.8024 2.1583,.4557 2.8542,1.0954-1.2477-14.3428 1.0733-26.6755-18.125-26.5625zm-2.375,17.75c-.56,.003-1.1136,.0404-1.6875,.0937 3.2313-.2567 6.522,.3816 9.5938,1.4375-2.3942-.9273-5.0546-1.5456-7.9062-1.5312zm-4.4688,10.625c-3.1524,.1244-6.8409,1.8414-11.1562,5.8125 20.2351-12.8383 20.0121,20.9403 19.25,27.9062-1.1799,30.4677 14.6078,51.4158 58.375,51.25 43.7672-.1658 59.6276-19.8865 58.375-51.25-2.834,30.3418-10.131,42.1409-53.125,42.5-43.7659,.3655-56.5549-10.7823-55.375-41.25 .7611-6.0853-2.6835-35.508-16.3438-34.9688z"/>
<g transform="matrix(.87546 0 0 .87546 -221.14621 195.59603)">
<path fill="#d4eaf6" d="m584.5,623.3622c0,13.5145-8.5066,24.4703-19,24.4703-10.4934,0-19-10.9557-19-24.4703 0-13.5145 8.5066-24.4702 19-24.4702 10.4934,0 19,10.9557 19,24.4702z" transform="matrix(.65771 0 0 .65771 221.5372 123.29593)"/>
<path fill="#c2deee" d="m594.2188,526.5625c-2.8908,0-5.2188,2.9957-5.2188,6.7188 0,3.723 2.328,6.75 5.2188,6.75h3c2.8908,0 5.25-3.027 5.25-6.75 0-3.723-2.3592-6.7188-5.25-6.7188z"/>
<path fill="#edf8fe" d="m584.5,623.3622c0,13.5145-8.5066,24.4703-19,24.4703-10.4934,0-19-10.9557-19-24.4703 0-13.5145 8.5066-24.4702 19-24.4702 10.4934,0 19,10.9557 19,24.4702z" transform="matrix(.27548 0 0 .27548 441.4372 361.56248)"/>
<path fill="#80c9f1" d="m608.7151,521.875c-6.8428,0-12.375,5.0951-12.375,11.4062 0,6.3111 5.5322,11.4375 12.375,11.4375 6.8428,0 12.4062-5.1264 12.4062-11.4375 0-6.3111-5.5634-11.4062-12.4062-11.4062zm0,4.0312c4.4127,0 8,3.3052 8,7.375 0,4.0698-3.5873,7.375-8,7.375-4.4127,0-8-3.3052-8-7.375 0-4.0698 3.5873-7.375 8-7.375z"/>
<path fill-opacity=".11" d="m608.7188,524.6562c-4.4127,0-8,3.3052-8,7.375 0,.1697 .019,.3331 .0313,.5 .4103-3.7165 3.8319-6.625 7.9688-6.625 4.1369,0 7.5585,2.9085 7.9688,6.625 .0123-.1669 .0313-.3303 .0313-.5 0-4.0698-3.5873-7.375-8-7.375zm-12.3438,8c-.0125,.2102-.0313,.4118-.0313,.625 0,6.3111 5.5322,11.4375 12.375,11.4375 6.8428,0 12.4062-5.1264 12.4062-11.4375 0-.2132-.0187-.4148-.0313-.625-.3584,6.0163-5.7633,10.8125-12.375,10.8125-6.6117,0-11.9873-4.7962-12.3438-10.8125z"/>
</g>
<path fill-opacity=".18" d="m469.2188,538.275c-27.6142,0-50,22.3858-50,50v105.75h13.0938v-105.75c0-25.3918 18.9217-46.3202 43.4375-49.5312-2.1359-.2784-4.3195-.4688-6.5312-.4688z"/>
<path fill="#fff" d="m284.5,472.3622a53.5,53.5 0 1,1 -107,0 53.5,53.5 0 1,1 107,0z" transform="matrix(.42056 0 0 .42056 -6.14953 385.86561)"/>
<path d="m284.5,472.3622a53.5,53.5 0 1,1 -107,0 53.5,53.5 0 1,1 107,0z" transform="matrix(.31483 0 0 .31483 18.27539 435.81111)"/>
<path fill-opacity=".18" d="m118.5312,523.5875c-.6397,.0388-1.2622,.1096-1.875,.2188-.5735,.1023-1.1368,.2476-1.6875,.4062-.4339,.1248-.8611,.2805-1.2812,.4375-.294,.1098-.5876,.2192-.875,.3438-.3724,.1616-.7322,.3465-1.0938,.5312-.008,.004-.023-.004-.0313,0-.0127,.006-.0186,.0247-.0313,.0313-.4977,.2564-.9911,.5166-1.4688,.8125-.1803,.1117-.3537,.2269-.5312,.3438-.1881,.1238-.3774,.2457-.5625,.375-.277,.1935-.5423,.4201-.8125,.625-.334,.2536-.6761,.5121-1,.7812-.4597,.3821-.935,.7789-1.375,1.1875-.3689,.343-.7381,.7045-1.0938,1.0625-.0628,.0632-.1251,.1239-.1875,.1875-.3417,.3484-.6702,.7037-1,1.0625-.4097,.4457-.7955,.8872-1.1875,1.3438-.0192,.0224-.0433,.0401-.0625,.0625-.2739,.32-.5469,.646-.8125,.9688-.1218,.148-.2549,.2892-.375,.4375-.0413,.051-.0839,.1052-.125,.1562-.7107,.8825-1.4085,1.79-2.0625,2.6562-.6964,.9227-1.3611,1.8308-2,2.6875-.2829,.3753-.6272,.7568-1,1.1562-.0379,.0407-.055,.0841-.0937,.125-.3462,.3651-.713,.7174-1.125,1.0938-.0959,.0879-.182,.1617-.2812,.25-.3759,.3341-.7672,.664-1.1875,1-.1598,.1281-.303,.2472-.4688,.375-.3842,.2961-.774,.5828-1.1875,.875-.2378,.1686-.4722,.3337-.7188,.5-.3611,.2431-.7156,.4822-1.0938,.7188-.3219,.202-.6359,.398-.9688,.5938-.1516,.089-.3151,.1625-.4688,.25-.4266,.243-.8718,.4578-1.3125,.6875-.1501,.0783-.2859,.1735-.4375,.25-.2797,.1412-.5597,.2716-.8438,.4062-.0715,.0339-.147,.0603-.2188,.0937-.612,.2856-1.2174,.5942-1.8438,.8438 7.888-1.4249 16.3359-6.8529 19.25-10.7188 4.3933-5.9966 3.7624-11.2276 15.5312-15.2188zm-77.0312,7.7812c-.2725,.0504-.5448,.0927-.8125,.1562-.2814,.0668-.5682,.1377-.8438,.2188-.3573,.1051-.7157,.2156-1.0625,.3438-.4488,.1664-.9143,.3593-1.3438,.5625-.3633,.1722-.7143,.3651-1.0625,.5625-.1589,.09-.3132,.1862-.4688,.2812-.307,.1876-.6129,.3871-.9062,.5938-.3363,.2378-.6829,.4883-1,.75-.7655,.6308-1.4531,1.337-2.0938,2.0938-.0383,.0454-.0872,.0792-.125,.125-.2628,.3171-.5112,.6635-.75,1-.2076,.2925-.4052,.6001-.5938,.9062-.0956,.1552-.1908,.3102-.2812,.4688-.0492,.0868-.1086,.1622-.1562,.25-.1461,.2669-.2748,.5369-.4062,.8125-.1844,.3866-.3456,.785-.5,1.1875-.0671,.175-.1262,.3534-.1875,.5312-.071,.2074-.1559,.4139-.2188,.625-.0941,.3159-.1746,.6453-.25,.9688-.048,.206-.0848,.4161-.125,.625-.0102,.053-.0216,.103-.0313,.1562-.0778,.4261-.1431,.8444-.1875,1.2812-.0563,.5547-.0937,1.118-.0937,1.6875 0,9.1127 7.3873,16.5 16.5,16.5 18.9922,4.0358 2.6518,35.685-5,36.5-10.4934,0-19,8.5066-19,19 0,4.3549 1.3434,6.7199 3,8.8125 .2365,.2986 .4725,.583 .7188,.875 .005,.006-.005,.0251 0,.0313 .4877,.5779 1.0096,1.1395 1.5,1.75 .1109,.138 .2029,.2955 .3125,.4375 .2849,.3688 .5742,.7495 .8438,1.1562 .091,.1377 .1927,.263 .2812,.4062 .1258,.2028 .2238,.4409 .3438,.6562 .0936,.1691 .1918,.3222 .2812,.5 .624,1.231 1.141,2.6638 1.4688,4.4688 .054,.2976 .0903,.5911 .125,.875 .0347,.2839 .0773,.5414 .0937,.8125 .0177,.2814 .0007,.5439 0,.8125-.005,1.814-.413,3.3379-1.0312,4.75-1.9429,4.4381-5.9375,7.6853-5.9375,14.6562 0,12.9787 10.5213,23.5 23.5,23.5 .4057,0 .8198-.0277 1.2188-.0625 .3989-.0348 .7956-.0887 1.1875-.1562 .3919-.0675 .7718-.1519 1.1562-.25 .2022-.0516 .3937-.0967 .5938-.1562 .0406-.0122 .0845-.0188 .125-.0313 .2934-.0903 .5863-.2058 .875-.3125 .2221-.0821 .437-.1587 .6562-.25 .1031-.0427 .21-.0803 .3125-.125 .2595-.1138 .526-.2491 .7812-.375 .0628-.0309 .1249-.0622 .1875-.0937 .295-.1493 .5859-.3045 .875-.4688 .0597-.0338 .128-.0593 .1875-.0937 .5765-.3347 1.1356-.7075 1.6875-1.0938 .0614-.0429 .1264-.0815 .1875-.125 .526-.3749 1.029-.7749 1.5312-1.1875 1.1212-.9208 2.1937-1.9279 3.1875-2.9688 .4969-.5204 .9747-1.0296 1.4375-1.5625 .0249-.0286 .0377-.0651 .0625-.0937-4.1633,2.7856-9.049,4.9062-14,4.9062-12.9787,0-16.5-7.5213-16.5-20.5 0-10.1396 3.7293-12.3818 2-21.9062-1.7293-9.5245-8.75-9.1396-8.75-19.0938 0-10.4934 7.0887-16.0004 14.5003-17.5002 8.8009,1.4831 28.4919-33.964 9.4997-37.9998-9.1127,0-16.7812-7.1685-16.7812-16.2812 0-6.4135 3.9368-12.176 9.2812-14.9062zm144.7188,71.0938c-.299,.1349-2.9718,1.1819-7.5625,1.875-4.6407,.7006-16.3034-.5204-21.1562,1.2188 .0416-.006 .0832,.006 .125,0 4.6729-.6237 10.6872,.0553 18.875,.5 .4664,.004 .92-.0238 1.375-.0625 .2647-.0225 .5209-.0573 .7812-.0937 .1859-.0257 .3789-.0299 .5625-.0625 .1043-.0188 .2089-.0415 .3125-.0625 .3389-.0676 .6699-.1595 1-.25 .2988-.0827 .5841-.1804 .875-.2812 .1251-.0429 .2514-.0788 .375-.125 .0647-.0244 .1233-.0684 .1875-.0937 .3438-.1354 .7004-.2775 1.0312-.4375 .3082-.149 .6102-.2994 .9062-.4688 .2343-.1333 .4613-.2607 .6875-.4062 .096-.062 .1868-.1234 .2812-.1875 .1169-.0791 .2292-.1677 .3438-.25 .2742-.1978 .5524-.4095 .8125-.625 .0682-.0565 .1203-.1299 .1875-.1875zm-75.9687,48.656c-8.9659,.0654-18.3826,.7093-25.8125,3.75 1.362-.3672 2.7828-.6768 4.2188-.9375 .2923-.0531 .5802-.1072 .875-.1562 .9147-.1526 1.8464-.2893 2.7812-.4062 .6204-.0774 1.2479-.1555 1.875-.2188 .3644-.0368 .7276-.0613 1.0938-.0937 2.2604-.2001 4.5284-.3101 6.8125-.375 1.2266-.0349 2.4401-.0537 3.6562-.0625 .2986-.002 .5775,.0009 .875,0 2.1204-.007 4.1595,.002 6.1875,.0313 2.2808,.0331 4.5487,.0792 6.625,.0937 .2645,.009 .5152,.0322 .7812,.0625 .7983,.091 1.6049,.2644 2.4062,.5312 1.0685,.3558 2.1487,.8511 3.1875,1.4688 1.0388,.6177 2.031,1.366 3,2.1875 .4842,.4108 .9783,.8304 1.4375,1.2812 .919,.9016 1.7737,1.8879 2.5625,2.9062 1.1823,1.5276 2.1922,3.1542 2.9688,4.7812 .5181,1.0847 .9313,2.1624 1.2188,3.2188 .2872,1.0563 .4522,2.0926 .4688,3.0625 .0249,1.4549 .3169,2.9659 .8438,4.4688 .351,1.0023 .8056,1.9892 1.3438,2.9688 .2691,.4898 .5645,.9601 .875,1.4375 .3149,.4848 .6461,.97 1,1.4375 .3483,.4606 .7112,.9043 1.0938,1.3438 3.0616,3.5129 7.1565,6.2749 11.375,7.1562 .321,.0671 .6513,.1138 .9688,.1562 .0203,.003 .0423-.003 .0625,0 .2962,.0382 .5823,.0763 .875,.0937 .0408,.002 .0843-.002 .125,0 .2712,.0135 .5446,.035 .8125,.0313 .2241-.003 .4347-.0165 .6562-.0313 .2317-.0156 .4587-.0344 .6875-.0625 .3227-.0393 .6522-.0928 .9688-.1562 .1955-.0393 .4007-.0768 .5938-.125 .2335-.0582 .4578-.1166 .6875-.1875 .2875-.0886 .5627-.2049 .8438-.3125 .281-.1076 .5383-.2178 .8125-.3438 .2447-.1123 .4798-.2487 .7188-.375-2.142,.6259-4.3585,.773-6.5625,.3125-8.437-1.7626-14.1486-11.5531-14.2812-19.3125-.1326-7.7594-9.5675-19.2133-18.0312-19.5-4.184-.0293-8.8671-.1602-13.6875-.125z"/>
<g transform="matrix(.87546 0 0 .87546 -399.447 156.98889)">
<path fill="#d4eaf6" d="m584.5,623.3622c0,13.5145-8.5066,24.4703-19,24.4703-10.4934,0-19-10.9557-19-24.4703 0-13.5145 8.5066-24.4702 19-24.4702 10.4934,0 19,10.9557 19,24.4702z" transform="matrix(.65771 0 0 .65771 221.5372 123.29593)"/>
<path fill="#c2deee" d="m594.2188,526.5625c-2.8908,0-5.2188,2.9957-5.2188,6.7188 0,3.723 2.328,6.75 5.2188,6.75h3c2.8908,0 5.25-3.027 5.25-6.75 0-3.723-2.3592-6.7188-5.25-6.7188z"/>
<path fill="#edf8fe" d="m584.5,623.3622c0,13.5145-8.5066,24.4703-19,24.4703-10.4934,0-19-10.9557-19-24.4703 0-13.5145 8.5066-24.4702 19-24.4702 10.4934,0 19,10.9557 19,24.4702z" transform="matrix(.27548 0 0 .27548 441.4372 361.56248)"/>
<path fill="#80c9f1" d="m608.7151,521.875c-6.8428,0-12.375,5.0951-12.375,11.4062 0,6.3111 5.5322,11.4375 12.375,11.4375 6.8428,0 12.4062-5.1264 12.4062-11.4375 0-6.3111-5.5634-11.4062-12.4062-11.4062zm0,4.0312c4.4127,0 8,3.3052 8,7.375 0,4.0698-3.5873,7.375-8,7.375-4.4127,0-8-3.3052-8-7.375 0-4.0698 3.5873-7.375 8-7.375z"/>
<path fill-opacity=".11" d="m608.7188,524.6562c-4.4127,0-8,3.3052-8,7.375 0,.1697 .019,.3331 .0313,.5 .4103-3.7165 3.8319-6.625 7.9688-6.625 4.1369,0 7.5585,2.9085 7.9688,6.625 .0123-.1669 .0313-.3303 .0313-.5 0-4.0698-3.5873-7.375-8-7.375zm-12.3438,8c-.0125,.2102-.0313,.4118-.0313,.625 0,6.3111 5.5322,11.4375 12.375,11.4375 6.8428,0 12.4062-5.1264 12.4062-11.4375 0-.2132-.0187-.4148-.0313-.625-.3584,6.0163-5.7633,10.8125-12.375,10.8125-6.6117,0-11.9873-4.7962-12.3438-10.8125z"/>
</g>
<g fill="#fff" fill-opacity=".343">
<path d="m163.5,518.1122a4,4 0 1,1 -8,0 4,4 0 1,1 8,0z" transform="translate(-108 110.68124)"/>
<path d="m159.5,535.3622a4,4 0 1,1 -8,0 4,4 0 1,1 8,0z" transform="translate(-108 110.68124)"/>
<path d="m166.75,529.1122a2.25,2.25 0 1,1 -4.5,0 2.25,2.25 0 1,1 4.5,0z" transform="translate(-108 110.68124)"/>
<path d="m162.5,548.8622a4.25,4.25 0 1,1 -8.5,0 4.25,4.25 0 1,1 8.5,0z" transform="translate(-108 110.68124)"/>
<path d="m205.5,526.1122a2.75,2.75 0 1,1 -5.5,0 2.75,2.75 0 1,1 5.5,0z" transform="translate(-108 110.68124)"/>
<path d="m199.25,517.1122a2.5,2.5 0 1,1 -5,0 2.5,2.5 0 1,1 5,0z" transform="translate(-108 110.68124)"/>
<path d="m209,515.1122a5.25,5.25 0 1,1 -10.5,0 5.25,5.25 0 1,1 10.5,0z" transform="translate(-108 110.68124)"/>
<path d="m232.25,435.6122a6,6 0 1,1 -12,0 6,6 0 1,1 12,0z" transform="translate(-108 110.68124)"/>
<path d="m234.75,447.3622a3.5,3.5 0 1,1 -7,0 3.5,3.5 0 1,1 7,0z" transform="translate(-108 110.68124)"/>
<path d="m245,428.8622a3.75,3.75 0 1,1 -7.5,0 3.75,3.75 0 1,1 7.5,0z" transform="translate(-108 110.68124)"/>
<path d="m170.25,496.8622a4.25,4.25 0 1,1 -8.5,0 4.25,4.25 0 1,1 8.5,0z" transform="translate(-108 110.68124)"/>
<path d="m261.5,489.6122a2,2 0 1,1 -4,0 2,2 0 1,1 4,0z" transform="translate(-108 110.68124)"/>
<path d="m271,489.8622a3.5,3.5 0 1,1 -7,0 3.5,3.5 0 1,1 7,0z" transform="translate(-105.5 108.43124)"/>
<path d="m287.75,486.3622a5.25,5.25 0 1,1 -10.5,0 5.25,5.25 0 1,1 10.5,0z" transform="matrix(1.19048 0 0 1.19048 -160.55952 15.29083)"/>
</g>
<path fill="#2ee68d" d="m633.2188,565.145c-31.7564,0-57.5,22.3858-57.5,50-1.395,6.4821 2.466,21.6741-.4688,26.2812-4.8435,2.4307-9.25,8.6185-9.25,19.25-2.3267,3.9833-8.3224,4.6637-8.5,9.75 0,6.0751 9.2901,11 20.75,11 4.3266,0 8.3314-.7367 11.6562-1.9375-.2618,1.1839-.4062,2.4201-.4062,3.6875 0,8.9746 6.9396,16.25 15.5,16.25 6.5532,0 9.0452-2.7843 11.3127-8.8099 3.0585-2.1971 4.6376-4.0306 6.5828-1.8863 2.124,2.3414 9.3028,5.6962 12.6045,5.6962 7.9774,0 14.8522-3.0462 18.0625-7.4375 .6361,7.1605-.088,13.8162 7.22,13.8162 6.7294,0 19.0605-3.8429 20.405-11.7537 9.4449-2.1581 7.0369,4.0299 14.8125,4.375 5.799,0 11.6588-7.683 10.5-17-.72-5.7888-5.8456-11.2769-10.5-17-6.2209-11.7544-4.7994-34.2021-5.2812-44.2812 0-27.6142-25.7436-50-57.5-50z"/>
<path fill="#fff" d="m590.5,448.3622a51,51 0 1,1 -102,0 51,51 0 1,1 102,0z" transform="matrix(.44561 0 0 .44561 392.81243 408.8526)"/>
<path d="m590.5,448.3622a51,51 0 1,1 -102,0 51,51 0 1,1 102,0z" transform="matrix(.31492 0 0 .31492 463.32074 467.44994)"/>
<g transform="translate(47.5 118.0513)">
<path fill="#d4eaf6" d="m584.5,623.3622c0,13.5145-8.5066,24.4703-19,24.4703-10.4934,0-19-10.9557-19-24.4703 0-13.5145 8.5066-24.4702 19-24.4702 10.4934,0 19,10.9557 19,24.4702z" transform="matrix(.65771 0 0 .65771 221.5372 123.29593)"/>
<path fill="#c2deee" d="m594.2188,526.5625c-2.8908,0-5.2188,2.9957-5.2188,6.7188 0,3.723 2.328,6.75 5.2188,6.75h3c2.8908,0 5.25-3.027 5.25-6.75 0-3.723-2.3592-6.7188-5.25-6.7188z"/>
<path fill="#edf8fe" d="m584.5,623.3622c0,13.5145-8.5066,24.4703-19,24.4703-10.4934,0-19-10.9557-19-24.4703 0-13.5145 8.5066-24.4702 19-24.4702 10.4934,0 19,10.9557 19,24.4702z" transform="matrix(.27548 0 0 .27548 441.4372 361.56248)"/>
<path fill="#80c9f1" d="m608.7151,521.875c-6.8428,0-12.375,5.0951-12.375,11.4062 0,6.3111 5.5322,11.4375 12.375,11.4375 6.8428,0 12.4062-5.1264 12.4062-11.4375 0-6.3111-5.5634-11.4062-12.4062-11.4062zm0,4.0312c4.4127,0 8,3.3052 8,7.375 0,4.0698-3.5873,7.375-8,7.375-4.4127,0-8-3.3052-8-7.375 0-4.0698 3.5873-7.375 8-7.375z"/>
<path fill-opacity=".11" d="m608.7188,524.6562c-4.4127,0-8,3.3052-8,7.375 0,.1697 .019,.3331 .0313,.5 .4103-3.7165 3.8319-6.625 7.9688-6.625 4.1369,0 7.5585,2.9085 7.9688,6.625 .0123-.1669 .0313-.3303 .0313-.5 0-4.0698-3.5873-7.375-8-7.375zm-12.3438,8c-.0125,.2102-.0313,.4118-.0313,.625 0,6.3111 5.5322,11.4375 12.375,11.4375 6.8428,0 12.4062-5.1264 12.4062-11.4375 0-.2132-.0187-.4148-.0313-.625-.3584,6.0163-5.7633,10.8125-12.375,10.8125-6.6117,0-11.9873-4.7962-12.3438-10.8125z"/>
</g>
<path fill-opacity=".18" d="m633.2188,565.145c-31.7564,0-57.5,22.3858-57.5,50-1.395,6.4821 2.466,21.6741-.4688,26.2812-4.8435,2.4307-9.25,8.6185-9.25,19.25-2.3267,3.9833-8.3224,4.6637-8.5,9.75 0,6.0751 9.2901,11 20.75,11 1.2914,0 2.5567-.0635 3.7812-.1875-9.6848-.9293-17.0312-5.4105-17.0312-10.8125 .1776-5.0863 2.2983-6.2667 4.625-10.25 0-10.6315 8.2815-16.3193 13.125-18.75 2.9348-4.6072-.9263-19.7991 .4688-26.2812 0-26.5191 23.7409-48.1957 53.75-49.875-1.2393-.0693-2.4906-.125-3.75-.125zm-40.4375,112.3438c-1.5133,.5466-2.189,1.4075-2.9062,2.1875-.2367,1.1278-.375,2.2981-.375,3.5 0,8.9746 6.9396,16.25 15.5,16.25 2.5252,0 4.4613-.397 6-1.25-11.0566,1.5317-14-6.2239-14-15 0-1.2674-1.4805-5.0036-4.2188-5.6875zm96.3438,8c-1.3273,.0885-2.8006,.9764-4.5,3.125 5.5033-.016 4.7376,4.518 11.375,4.8125 2.2668,0 4.5437-1.2008 6.4062-3.1875-5.6688,4.0172-8.6341-5.0598-13.2812-4.75zm-30.4527-1.12c-1.2773,1.7471-2.9716,1.6655-5.0969,2.7667 .2492,5.936 .1663,13.8601 7.2059,13.6658 1.7728-.0489 3.9396-.2746 6.1875-.8125-10.2305,.3368-8.9233-8.8021-8.2964-15.62zm-33.0473,2.1513c-1.1138,.0257-2.2906,.3949-3.4375,1.2188-.0417,.1109-.0836,.2035-.125,.3125 .2738,.1547 .5601,.3748 .8438,.6875 2.124,2.3414 9.292,5.6875 12.5938,5.6875 2.8717,0 5.5961-.3836 8.0625-1.0938-.5176,.1183-1.0318,.2294-1.5625,.3438-4.6374,.9996-9.4697-2.5961-11.5938-4.9375-1.2158-1.3402-2.9249-2.2616-4.7812-2.2188z"/>
<g fill="#2ee68d">
<path d="m97,332.4168c-4.978,6.6038-24.6103,17.7547-31.5,5.75-6.8897-12.0047-11.8873-15-21-15-9.1127,0-16.5,7.3873-16.5,16.5 0,9.1127 7.3873,16.5 16.5,16.5 18.9922,4.0358 2.6519,35.685-4.9999,36.5-10.4934,0-19,8.5066-19,19 0,9.9541 7.0149,9.5585 8.7442,19.083 1.7293,9.5245-6.7442,11.7774-6.7442,21.917 0,12.9787 10.5213,23.5 23.5,23.5 11.4329,0 20.1733-14.3084 23.0625-19 8.7858-14.2667 33.6356-12.4399 50.3716-12.3226 8.4637,.2867 17.9081,11.74 18.0407,19.4994 .1326,7.7594 8.0881,17.0606 16.5251,18.8232 10.2716,2.1459 18.8157-8.5082 19-19 .1751-9.968-10.8836-17.1084-19.8839-21.2981-15.088-8.8685-12.1991-22.1364-11.3539-25.1103 6.7972-23.6098 13.2519-20.7585 34.7378-19.5916 8.291,.072 15-6.7157 15-15 0-8.2843-1.9235-14.2014-15-15-13.0765-.7986-27.4819,2.4272-35.75-4.75-8.2681-7.1772-4.849-18.0818-.25-26.75 4.599-8.6682-9.402-21-21-21-10.456,.0193-17.3548,9.851-22.5,16.75z"/>
<path d="m291.4688,347.6668c-1.5043-.0403-3.0048,.0402-4.4688,.25 10.5039,7.5497 10.7508,15.9515 5.9062,24.0312-5.8885-6.2558-11.2956-13.2105-24.4062-12.2812 7.449,5.2314 6.9649,11.0039 3.7188,17.3125-13.5256-18.1419-26.1559-19.1814-45.2188-7.3125 24.1447-1.3045 24.6392,9.6113 25,24.7188-3.711-3.4112-11.6852-9.2734-21.25-7.4688-13.25,2.5-12.125,16.0938-12.125,16.0938 20.2351-12.8383 20.0121,20.9403 19.25,27.9062-1.1799,30.4677 14.6078,51.4158 58.375,51.25 43.7672-.1658 59.6276-19.8865 58.375-51.25-.2772-6.9394-2-13.555-4.9062-19.5938-1.997-7.0061-2.3788-12.5466-.4688-17.1562 2.9086-7.0193 17.6748-13.7306 18.5-11.75-1.4344-4.5423-17.141-6.9757-26.4062-2.1875 1.3351-8.1117 4.8664-11.6797 11.4062-9.1875-2.141-8.8409-16.9971-9.6338-25.7188,0-6.053-12.0417-21.4067-22.9955-35.5625-23.375z"/>
<path d="m469.2193,330.4009c-27.6142,0-50,22.3858-50,50v105.75h100v-105.75c0-27.6142-22.3858-50-50-50z"/>
</g>
<path fill="#fff" d="m590.5,448.3622a51,51 0 1,1 -102,0 51,51 0 1,1 102,0z" transform="matrix(.54365 0 0 .54365 175.92027 136.63607)"/>
<path d="m590.5,448.3622a51,51 0 1,1 -102,0 51,51 0 1,1 102,0z" transform="matrix(.3842 0 0 .3842 261.94119 208.12547)"/>
<g transform="translate(-111 -102.20816)">
<path fill="#d4eaf6" d="m584.5,623.3622c0,13.5145-8.5066,24.4703-19,24.4703-10.4934,0-19-10.9557-19-24.4703 0-13.5145 8.5066-24.4702 19-24.4702 10.4934,0 19,10.9557 19,24.4702z" transform="matrix(.65771 0 0 .65771 221.5372 123.29593)"/>
<path fill="#c2deee" d="m594.2188,526.5625c-2.8908,0-5.2188,2.9957-5.2188,6.7188 0,3.723 2.328,6.75 5.2188,6.75h3c2.8908,0 5.25-3.027 5.25-6.75 0-3.723-2.3592-6.7188-5.25-6.7188z"/>
<path fill="#edf8fe" d="m584.5,623.3622c0,13.5145-8.5066,24.4703-19,24.4703-10.4934,0-19-10.9557-19-24.4703 0-13.5145 8.5066-24.4702 19-24.4702 10.4934,0 19,10.9557 19,24.4702z" transform="matrix(.27548 0 0 .27548 441.4372 361.56248)"/>
<path fill="#80c9f1" d="m608.7151,521.875c-6.8428,0-12.375,5.0951-12.375,11.4062 0,6.3111 5.5322,11.4375 12.375,11.4375 6.8428,0 12.4062-5.1264 12.4062-11.4375 0-6.3111-5.5634-11.4062-12.4062-11.4062zm0,4.0312c4.4127,0 8,3.3052 8,7.375 0,4.0698-3.5873,7.375-8,7.375-4.4127,0-8-3.3052-8-7.375 0-4.0698 3.5873-7.375 8-7.375z"/>
<path fill-opacity=".11" d="m608.7188,524.6562c-4.4127,0-8,3.3052-8,7.375 0,.1697 .019,.3331 .0313,.5 .4103-3.7165 3.8319-6.625 7.9688-6.625 4.1369,0 7.5585,2.9085 7.9688,6.625 .0123-.1669 .0313-.3303 .0313-.5 0-4.0698-3.5873-7.375-8-7.375zm-12.3438,8c-.0125,.2102-.0313,.4118-.0313,.625 0,6.3111 5.5322,11.4375 12.375,11.4375 6.8428,0 12.4062-5.1264 12.4062-11.4375 0-.2132-.0187-.4148-.0313-.625-.3584,6.0163-5.7633,10.8125-12.375,10.8125-6.6117,0-11.9873-4.7962-12.3438-10.8125z"/>
</g>
<g transform="translate(-115.4693 -101.44216)">
<path fill="#fff" d="m590.5,448.3622c0,28.1665-22.8335,51-51,51-28.1665,0-51-22.8335-51-51 0-28.1665 22.8335-51 51-51 28.1665,0 51,22.8335 51,51z" transform="matrix(.30836 0 0 .30836 223.86145 392.5912)"/>
<path d="m590.5,448.3622c0,28.1665-22.8335,51-51,51-28.1665,0-51-22.8335-51-51 0-28.1665 22.8335-51 51-51 28.1665,0 51,22.8335 51,51z" transform="matrix(.21792 0 0 .21792 272.65212 433.13965)"/>
<path fill="#fff" d="m590.5,448.3622c0,28.1665-22.8335,51-51,51-28.1665,0-51-22.8335-51-51 0-28.1665 22.8335-51 51-51 28.1665,0 51,22.8335 51,51z" transform="matrix(.30836 0 0 .30836 266.86145 392.5912)"/>
<path d="m590.5,448.3622c0,28.1665-22.8335,51-51,51-28.1665,0-51-22.8335-51-51 0-28.1665 22.8335-51 51-51 28.1665,0 51,22.8335 51,51z" transform="matrix(.21792 0 0 .21792 315.65212 433.13965)"/>
</g>
<g transform="matrix(.87546 0 0 .87546 -221.14621 -12.29336)">
<path fill="#d4eaf6" d="m584.5,623.3622c0,13.5145-8.5066,24.4703-19,24.4703-10.4934,0-19-10.9557-19-24.4703 0-13.5145 8.5066-24.4702 19-24.4702 10.4934,0 19,10.9557 19,24.4702z" transform="matrix(.65771 0 0 .65771 221.5372 123.29593)"/>
<path fill="#c2deee" d="m594.2188,526.5625c-2.8908,0-5.2188,2.9957-5.2188,6.7188 0,3.723 2.328,6.75 5.2188,6.75h3c2.8908,0 5.25-3.027 5.25-6.75 0-3.723-2.3592-6.7188-5.25-6.7188z"/>
<path fill="#edf8fe" d="m584.5,623.3622c0,13.5145-8.5066,24.4703-19,24.4703-10.4934,0-19-10.9557-19-24.4703 0-13.5145 8.5066-24.4702 19-24.4702 10.4934,0 19,10.9557 19,24.4702z" transform="matrix(.27548 0 0 .27548 441.4372 361.56248)"/>
<path fill="#80c9f1" d="m608.7151,521.875c-6.8428,0-12.375,5.0951-12.375,11.4062 0,6.3111 5.5322,11.4375 12.375,11.4375 6.8428,0 12.4062-5.1264 12.4062-11.4375 0-6.3111-5.5634-11.4062-12.4062-11.4062zm0,4.0312c4.4127,0 8,3.3052 8,7.375 0,4.0698-3.5873,7.375-8,7.375-4.4127,0-8-3.3052-8-7.375 0-4.0698 3.5873-7.375 8-7.375z"/>
<path fill-opacity=".11" d="m608.7188,524.6562c-4.4127,0-8,3.3052-8,7.375 0,.1697 .019,.3331 .0313,.5 .4103-3.7165 3.8319-6.625 7.9688-6.625 4.1369,0 7.5585,2.9085 7.9688,6.625 .0123-.1669 .0313-.3303 .0313-.5 0-4.0698-3.5873-7.375-8-7.375zm-12.3438,8c-.0125,.2102-.0313,.4118-.0313,.625 0,6.3111 5.5322,11.4375 12.375,11.4375 6.8428,0 12.4062-5.1264 12.4062-11.4375 0-.2132-.0187-.4148-.0313-.625-.3584,6.0163-5.7633,10.8125-12.375,10.8125-6.6117,0-11.9873-4.7962-12.3438-10.8125z"/>
</g>
<path fill="#fff" d="m284.5,472.3622a53.5,53.5 0 1,1 -107,0 53.5,53.5 0 1,1 107,0z" transform="matrix(.42056 0 0 .42056 -6.14953 177.97622)"/>
<path d="m284.5,472.3622a53.5,53.5 0 1,1 -107,0 53.5,53.5 0 1,1 107,0z" transform="matrix(.31483 0 0 .31483 18.27539 227.92172)"/>
<g transform="matrix(.87546 0 0 .87546 -399.447 -50.90051)">
<path fill="#d4eaf6" d="m584.5,623.3622c0,13.5145-8.5066,24.4703-19,24.4703-10.4934,0-19-10.9557-19-24.4703 0-13.5145 8.5066-24.4702 19-24.4702 10.4934,0 19,10.9557 19,24.4702z" transform="matrix(.65771 0 0 .65771 221.5372 123.29593)"/>
<path fill="#c2deee" d="m594.2188,526.5625c-2.8908,0-5.2188,2.9957-5.2188,6.7188 0,3.723 2.328,6.75 5.2188,6.75h3c2.8908,0 5.25-3.027 5.25-6.75 0-3.723-2.3592-6.7188-5.25-6.7188z"/>
<path fill="#edf8fe" d="m584.5,623.3622c0,13.5145-8.5066,24.4703-19,24.4703-10.4934,0-19-10.9557-19-24.4703 0-13.5145 8.5066-24.4702 19-24.4702 10.4934,0 19,10.9557 19,24.4702z" transform="matrix(.27548 0 0 .27548 441.4372 361.56248)"/>
<path fill="#80c9f1" d="m608.7151,521.875c-6.8428,0-12.375,5.0951-12.375,11.4062 0,6.3111 5.5322,11.4375 12.375,11.4375 6.8428,0 12.4062-5.1264 12.4062-11.4375 0-6.3111-5.5634-11.4062-12.4062-11.4062zm0,4.0312c4.4127,0 8,3.3052 8,7.375 0,4.0698-3.5873,7.375-8,7.375-4.4127,0-8-3.3052-8-7.375 0-4.0698 3.5873-7.375 8-7.375z"/>
<path fill-opacity=".11" d="m608.7188,524.6562c-4.4127,0-8,3.3052-8,7.375 0,.1697 .019,.3331 .0313,.5 .4103-3.7165 3.8319-6.625 7.9688-6.625 4.1369,0 7.5585,2.9085 7.9688,6.625 .0123-.1669 .0313-.3303 .0313-.5 0-4.0698-3.5873-7.375-8-7.375zm-12.3438,8c-.0125,.2102-.0313,.4118-.0313,.625 0,6.3111 5.5322,11.4375 12.375,11.4375 6.8428,0 12.4062-5.1264 12.4062-11.4375 0-.2132-.0187-.4148-.0313-.625-.3584,6.0163-5.7633,10.8125-12.375,10.8125-6.6117,0-11.9873-4.7962-12.3438-10.8125z"/>
</g>
<g fill="#fff" fill-opacity=".343">
<path d="m163.5,518.1122a4,4 0 1,1 -8,0 4,4 0 1,1 8,0z" transform="translate(-108 -97.20816)"/>
<path d="m159.5,535.3622a4,4 0 1,1 -8,0 4,4 0 1,1 8,0z" transform="translate(-108 -97.20816)"/>
<path d="m166.75,529.1122a2.25,2.25 0 1,1 -4.5,0 2.25,2.25 0 1,1 4.5,0z" transform="translate(-108 -97.20816)"/>
<path d="m162.5,548.8622a4.25,4.25 0 1,1 -8.5,0 4.25,4.25 0 1,1 8.5,0z" transform="translate(-108 -97.20816)"/>
<path d="m205.5,526.1122a2.75,2.75 0 1,1 -5.5,0 2.75,2.75 0 1,1 5.5,0z" transform="translate(-108 -97.20816)"/>
<path d="m199.25,517.1122a2.5,2.5 0 1,1 -5,0 2.5,2.5 0 1,1 5,0z" transform="translate(-108 -97.20816)"/>
<path d="m209,515.1122a5.25,5.25 0 1,1 -10.5,0 5.25,5.25 0 1,1 10.5,0z" transform="translate(-108 -97.20816)"/>
<path d="m232.25,435.6122a6,6 0 1,1 -12,0 6,6 0 1,1 12,0z" transform="translate(-108 -97.20816)"/>
<path d="m234.75,447.3622a3.5,3.5 0 1,1 -7,0 3.5,3.5 0 1,1 7,0z" transform="translate(-108 -97.20816)"/>
<path d="m245,428.8622a3.75,3.75 0 1,1 -7.5,0 3.75,3.75 0 1,1 7.5,0z" transform="translate(-108 -97.20816)"/>
<path d="m170.25,496.8622a4.25,4.25 0 1,1 -8.5,0 4.25,4.25 0 1,1 8.5,0z" transform="translate(-108 -97.20816)"/>
<path d="m261.5,489.6122a2,2 0 1,1 -4,0 2,2 0 1,1 4,0z" transform="translate(-108 -97.20816)"/>
<path d="m271,489.8622a3.5,3.5 0 1,1 -7,0 3.5,3.5 0 1,1 7,0z" transform="translate(-105.5 -99.45816)"/>
<path d="m287.75,486.3622a5.25,5.25 0 1,1 -10.5,0 5.25,5.25 0 1,1 10.5,0z" transform="matrix(1.19048 0 0 1.19048 -160.55952 -192.59857)"/>
</g>
<path fill="#2ee68d" d="m633.2188,357.2557c-31.7564,0-57.5,22.3858-57.5,50-1.395,6.4821 2.466,21.6741-.4688,26.2812-4.8435,2.4307-9.25,8.6185-9.25,19.25-2.3267,3.9833-8.3224,4.6637-8.5,9.75 0,6.0751 9.2901,11 20.75,11 4.3266,0 8.3314-.7367 11.6562-1.9375-.2618,1.1839-.4062,2.4201-.4062,3.6875 0,8.9746 6.9396,16.25 15.5,16.25 6.5532,0 9.0452-2.7843 11.3127-8.8099 3.0585-2.1971 4.6376-4.0306 6.5828-1.8863 2.124,2.3414 9.3028,5.6962 12.6045,5.6962 7.9774,0 14.8522-3.0462 18.0625-7.4375 .6361,7.1605-.088,13.8162 7.22,13.8162 6.7294,0 19.0605-3.8429 20.405-11.7537 9.4449-2.1581 7.0369,4.0299 14.8125,4.375 5.799,0 11.6588-7.683 10.5-17-.72-5.7888-5.8456-11.2769-10.5-17-6.2209-11.7544-4.7994-34.2021-5.2812-44.2812 0-27.6142-25.7436-50-57.5-50z"/>
<path fill="#fff" d="m590.5,448.3622a51,51 0 1,1 -102,0 51,51 0 1,1 102,0z" transform="matrix(.44561 0 0 .44561 392.81243 200.96321)"/>
<path d="m590.5,448.3622a51,51 0 1,1 -102,0 51,51 0 1,1 102,0z" transform="matrix(.31492 0 0 .31492 463.32074 259.56055)"/>
<g transform="translate(47.5 -89.83809)">
<path fill="#d4eaf6" d="m584.5,623.3622c0,13.5145-8.5066,24.4703-19,24.4703-10.4934,0-19-10.9557-19-24.4703 0-13.5145 8.5066-24.4702 19-24.4702 10.4934,0 19,10.9557 19,24.4702z" transform="matrix(.65771 0 0 .65771 221.5372 123.29593)"/>
<path fill="#c2deee" d="m594.2188,526.5625c-2.8908,0-5.2188,2.9957-5.2188,6.7188 0,3.723 2.328,6.75 5.2188,6.75h3c2.8908,0 5.25-3.027 5.25-6.75 0-3.723-2.3592-6.7188-5.25-6.7188z"/>
<path fill="#edf8fe" d="m584.5,623.3622c0,13.5145-8.5066,24.4703-19,24.4703-10.4934,0-19-10.9557-19-24.4703 0-13.5145 8.5066-24.4702 19-24.4702 10.4934,0 19,10.9557 19,24.4702z" transform="matrix(.27548 0 0 .27548 441.4372 361.56248)"/>
<path fill="#80c9f1" d="m608.7151,521.875c-6.8428,0-12.375,5.0951-12.375,11.4062 0,6.3111 5.5322,11.4375 12.375,11.4375 6.8428,0 12.4062-5.1264 12.4062-11.4375 0-6.3111-5.5634-11.4062-12.4062-11.4062zm0,4.0312c4.4127,0 8,3.3052 8,7.375 0,4.0698-3.5873,7.375-8,7.375-4.4127,0-8-3.3052-8-7.375 0-4.0698 3.5873-7.375 8-7.375z"/>
<path fill-opacity=".11" d="m608.7188,524.6562c-4.4127,0-8,3.3052-8,7.375 0,.1697 .019,.3331 .0313,.5 .4103-3.7165 3.8319-6.625 7.9688-6.625 4.1369,0 7.5585,2.9085 7.9688,6.625 .0123-.1669 .0313-.3303 .0313-.5 0-4.0698-3.5873-7.375-8-7.375zm-12.3438,8c-.0125,.2102-.0313,.4118-.0313,.625 0,6.3111 5.5322,11.4375 12.375,11.4375 6.8428,0 12.4062-5.1264 12.4062-11.4375 0-.2132-.0187-.4148-.0313-.625-.3584,6.0163-5.7633,10.8125-12.375,10.8125-6.6117,0-11.9873-4.7962-12.3438-10.8125z"/>
</g>
<text x="403.966" y="380.746" font-family="Sans" word-spacing="0" line-height="125%" xml:space="preserve" letter-spacing="0" transform="matrix(.96982 -.24382 .24382 .96982 0 0)" font-size="40px"><tspan x="403.966" y="380.746" font-size="24px">am sztem ez</tspan>
</text>
<path fill="none" marker-end="url(#TriangleOutM)" stroke="#000" stroke-width="2" d="m475.5293,267.1201c-31.4479,8.271-37.0383,23.4889-28.2843,56.8008"/>
<text x="56" y="74.362" font-family="Sans" word-spacing="0" line-height="125%" xml:space="preserve" letter-spacing="0" font-size="40px"><tspan x="56" y="74.362" font-size="22px">ez a bébi verzió, aztán evolválódik a cucc,</tspan><tspan x="56" y="101.862" font-size="22px">amihez lesz valami fejlődésfa féle.</tspan><tspan x="56" y="129.362" font-size="22px">vehetsz nekik kezet meg szarvat meg szinezheted</tspan>
</text>
<path fill="#2ee68d" d="m238,783.375c-28.5825,0-42,19.3506-42,44 0,24.6494 3.5,54.5-.5,89-4,34.5 30.9467,62 68.5,62 37.5533,0 44.5-40.5 37-60-2.1209-5.5145-4.5586-13.3071-6.9688-22.0625l-6.5312-54.9375c0,0-1.8709,.4564-4.625,1.0938-.5367-4.5596-.875-8.6864-.875-12.0938 0-21.0541-15.4175-47-44-47z"/>
<path fill="#fff" d="m590.5,448.3622a51,51 0 1,1 -102,0 51,51 0 1,1 102,0z" transform="matrix(.2628 0 0 .2628 82.64733 705.46501)"/>
<path d="m590.5,448.3622a51,51 0 1,1 -102,0 51,51 0 1,1 102,0z" transform="matrix(.1367 0 0 .1367 151.67547 764.50115)"/>
<path fill="#fff" d="m590.5,448.3622a51,51 0 1,1 -102,0 51,51 0 1,1 102,0z" transform="matrix(.2628 0 0 .2628 119.29427 705.46501)"/>
<path d="m590.5,448.3622a51,51 0 1,1 -102,0 51,51 0 1,1 102,0z" transform="matrix(.1367 0 0 .1367 188.1498 764.00115)"/>
<path fill="none" stroke="#000" d="m220.5,849.8622c27.5359,.0466 36.923-.8037 67-8.5"/>
<g fill="#2ee68d" line-height="normal" color="#000">
<path d="m226.6875,948.2812-5.0938,.2812 3.5625,63.625 .0625,1.5c4.8993,7.3738 12.9844,9.0195 21.125,10.5625l2.2812-4.5625c.7736-4.4693-9.6681-6.6955-18.4688-9.25z"/>
<path d="m273.1875,940.0312-5.0938,.2812 3.5625,63.625 .0625,1.5c4.8993,7.3738 12.9844,9.0195 21.125,10.5625l2.2812-4.5625c.7736-4.4693-9.6681-6.6955-18.4688-9.25z"/>
</g>
<path fill="none" stroke="#000" d="m222.8218,866.7267c0-3.7576-5.2149-3.8449-5.2149-.221 0,5.3033 1.4142,57.5408 1.4142,57.5408 0,0-1.6143,3.4427-3.382,3.6195-.8839,.0884-7.8025,1.847-5.8778,5.016 1.9247,3.1691 5.7243,.0265 7.8457-1.7412 4.2426-3.5355 2.4749,.7071 2.4749,.7071-.2305,1.8401-5.1038,4.6751-1.2376,6.2393 3.8662,1.5642 3.472-4.1425 4.9499-5.8857 .4174-.4321 1.4341-1.8376 1.6428-1.3107 .7144,1.8039-.3234,10.6548 4.2545,7.8899 4.5779-2.7649-.7284-5.3954-1.3011-9.0541"/>
</svg>
