<?xml version="1.0" encoding="UTF-8"?>
<svg width="32" height="32" version="1.1" viewBox="0 0 8.4666665 8.4666669" xmlns="http://www.w3.org/2000/svg" xmlns:cc="http://creativecommons.org/ns#" xmlns:dc="http://purl.org/dc/elements/1.1/" xmlns:rdf="http://www.w3.org/1999/02/22-rdf-syntax-ns#">
<metadata>
<rdf:RDF>
<cc:Work rdf:about="">
<dc:format>image/svg+xml</dc:format>
<dc:type rdf:resource="http://purl.org/dc/dcmitype/StillImage"/>
<dc:title/>
</cc:Work>
</rdf:RDF>
</metadata>
<g transform="translate(0 -288.53)">
<g transform="matrix(.26238 0 0 .26238 3.2465 216.51)" fill="none" stroke="#000">
<path d="m4.201 276.51-8.2854 1.5368-3.3409-2.3386-4.009 0.53454-0.80181 5.7797 2.1382 3.9422-0.73499 6.3811 3.8754 8.1851 2.2384 3.0736 4.6104 2.0379 1.0357 0.96885 2.8731-0.50112-3.6081-3.0736-2.205-3.9756 1.4032-4.8777 0.23386-3.5079 1.0357-1.5368-0.0334-1.9711-2.4388-4.577 3.3409-3.6416 2.4388 0.60136" stroke-width=".26458px"/>
<path d="m1.5283 278.95-3.9199-1.216" stroke-width=".26458px"/>
<path d="m-1.8126 282.59-4.2095 2.8063-1.7707 3.3075-3.0402 3.6415" stroke-width=".26458px"/>
<path d="m-4.0844 278.05-1.1025 2.3052-4.9111 5.6126" stroke-width=".26458px"/>
<path d="m-5.1869 280.36-5.5187-4.2064" stroke-width=".26458px"/>
<path d="m-9.3263 277.2-2.5527 5.484" stroke-width=".265"/>
<path d="m-10.098 285.97 2.3052 2.7395 2.7061 5.2452 4.4768 0.23386" stroke-width=".26458px"/>
<path d="m-5.0866 293.95-2.5679 5.1094" stroke-width=".26458px"/>
<path d="m-6.9575 300.54 7.1495 2.5056" stroke-width=".26458px"/>
<path d="m-6.0221 285.4 3.675 2.0045 2.9853 0.46808" stroke-width=".26458px"/>
<path d="m-2.3471 287.41-0.36749 1.5034 1.1359 0.83522 2.2384-0.60136 3.4411-0.96885" stroke-width=".26458px"/>
<path d="m0.65966 289.14 1.8375 4.9111-1.6704 1.7038 0.33409 1.9043 2.8063 2.2384 0.0334 1.5034h-1.4366l-2.372 1.637" stroke-width=".26458px"/>
<path d="m1.1608 297.66-3.1738 1.4032" stroke-width=".26458px"/>
<path d="m1.8076 301.93 1.0236 0.61391h2.2718l1.0236-0.61391" stroke-width=".26458px"/>
<path d="m3.7333 276.51 8.2854 1.5368 3.3409-2.3386 4.009 0.53454 0.80181 5.7797-2.1382 3.9422 0.73499 6.3811-3.8754 8.1851-2.2384 3.0736-4.6104 2.0379-1.0357 0.96885-2.8732-0.50112 3.6081-3.0736 2.205-3.9756-1.4032-4.8777-0.23386-3.5079-1.0357-1.5368 0.0334-1.9711 2.4388-4.577-3.3409-3.6416-2.4388 0.60136" stroke-width=".26458px"/>
<path d="m6.406 278.95 3.9199-1.216" stroke-width=".26458px"/>
<path d="m9.7468 282.59 4.2095 2.8063 1.7707 3.3075 3.0402 3.6415" stroke-width=".26458px"/>
<path d="m12.019 278.05 1.1025 2.3052 4.9111 5.6126" stroke-width=".26458px"/>
<path d="m13.121 280.36 5.5187-4.2064" stroke-width=".26458px"/>
<path d="m17.261 277.2 2.5527 5.484" stroke-width=".26458px"/>
<path d="m18.032 285.97-2.3052 2.7395-2.7061 5.2452-4.4768 0.23386" stroke-width=".26458px"/>
<path d="m13.021 293.95 2.5679 5.1094" stroke-width=".26458px"/>
<path d="m14.892 300.54-7.1495 2.5056" stroke-width=".26458px"/>
<path d="m13.956 285.4-3.675 2.0045-2.9853 0.46808" stroke-width=".26458px"/>
<path d="m10.281 287.41 0.36749 1.5034-1.1359 0.83522-2.2384-0.60136-3.4411-0.96885" stroke-width=".26458px"/>
<path d="m7.2746 289.14-1.8375 4.9111 1.6704 1.7038-0.33408 1.9043-2.8063 2.2384-0.0334 1.5034h1.4366l2.372 1.637" stroke-width=".26458px"/>
<path d="m6.7735 297.66 3.1738 1.4032" stroke-width=".26458px"/>
<path d="m2.4971 294.05h2.94" stroke-width=".26458px"/>
</g>
</g>
</svg>
