<?xml version="1.0" encoding="UTF-8" standalone="no"?>
<!-- Created with Inkscape (http://www.inkscape.org/) -->

<svg
   xmlns:dc="http://purl.org/dc/elements/1.1/"
   xmlns:cc="http://creativecommons.org/ns#"
   xmlns:rdf="http://www.w3.org/1999/02/22-rdf-syntax-ns#"
   xmlns:svg="http://www.w3.org/2000/svg"
   xmlns="http://www.w3.org/2000/svg"
   xmlns:xlink="http://www.w3.org/1999/xlink"
   xmlns:sodipodi="http://sodipodi.sourceforge.net/DTD/sodipodi-0.dtd"
   xmlns:inkscape="http://www.inkscape.org/namespaces/inkscape"
   width="210mm"
   height="297mm"
   id="svg2"
   version="1.1"
   inkscape:version="0.48.4 r9939"
   sodipodi:docname="rajz-1.svg">
  <defs
     id="defs4">
    <linearGradient
       id="linearGradient3819">
      <stop
         style="stop-color:#ffffff;stop-opacity:1;"
         offset="0"
         id="stop3821" />
      <stop
         style="stop-color:#ffffff;stop-opacity:0;"
         offset="1"
         id="stop3823" />
    </linearGradient>
    <linearGradient
       id="linearGradient3782">
      <stop
         style="stop-color:#f8ecd3;stop-opacity:1;"
         offset="0"
         id="stop3784" />
      <stop
         id="stop3790"
         offset="0.90194362"
         style="stop-color:#f8ecd3;stop-opacity:1;" />
      <stop
         style="stop-color:#eee1c6;stop-opacity:1;"
         offset="1"
         id="stop3786" />
    </linearGradient>
    <linearGradient
       id="linearGradient3773">
      <stop
         style="stop-color:#ffffff;stop-opacity:0.52531648;"
         offset="0"
         id="stop3776" />
      <stop
         style="stop-color:#ffffff;stop-opacity:0;"
         offset="1"
         id="stop3778" />
    </linearGradient>
    <linearGradient
       id="linearGradient3771">
      <stop
         style="stop-color:#e8cb00;stop-opacity:1;"
         offset="0"
         id="stop3773" />
      <stop
         style="stop-color:#e8a700;stop-opacity:1;"
         offset="1"
         id="stop3775" />
    </linearGradient>
    <linearGradient
       inkscape:collect="always"
       xlink:href="#linearGradient3773"
       id="linearGradient3780"
       x1="217.59375"
       y1="454.85938"
       x2="308.875"
       y2="454.85938"
       gradientUnits="userSpaceOnUse" />
    <radialGradient
       inkscape:collect="always"
       xlink:href="#linearGradient3782"
       id="radialGradient3796"
       gradientUnits="userSpaceOnUse"
       gradientTransform="matrix(1.0718082,0,0,1.0718082,62.947182,-11.235004)"
       cx="173.5"
       cy="422.36218"
       fx="173.5"
       fy="422.36218"
       r="59.5" />
    <linearGradient
       inkscape:collect="always"
       xlink:href="#linearGradient3819"
       id="linearGradient3825"
       x1="244.71158"
       y1="327.63907"
       x2="295.46478"
       y2="438.83743"
       gradientUnits="userSpaceOnUse" />
    <clipPath
       clipPathUnits="userSpaceOnUse"
       id="clipPath5349">
      <path
         inkscape:export-ydpi="90"
         inkscape:export-xdpi="90"
         inkscape:export-filename="/home/krisz/Dropbox/prog/rajzapp/img/128.png"
         sodipodi:nodetypes="cccccc"
         inkscape:connector-curvature="0"
         id="path5351"
         d="m 537.47312,404.84578 c 9.96015,3.89434 19.24962,9.38869 25.44647,22.26017 l -50.6611,57.91268 -32.68063,11.68399 7.23416,-33.94418 z"
         style="fill:#06b3ff;fill-opacity:1;stroke:none" />
    </clipPath>
    <filter
       inkscape:collect="always"
       id="filter5375"
       x="-0.1929766"
       width="1.3859532"
       y="-0.21480325"
       height="1.4296065">
      <feGaussianBlur
         inkscape:collect="always"
         stdDeviation="6.701414"
         id="feGaussianBlur5377" />
    </filter>
  </defs>
  <sodipodi:namedview
     id="base"
     pagecolor="#ffffff"
     bordercolor="#666666"
     borderopacity="1.0"
     inkscape:pageopacity="0.0"
     inkscape:pageshadow="2"
     inkscape:zoom="1.4786538"
     inkscape:cx="306.18566"
     inkscape:cy="507.37732"
     inkscape:document-units="px"
     inkscape:current-layer="layer1"
     showgrid="false"
     inkscape:snap-bbox="true"
     inkscape:snap-bbox-midpoints="true"
     inkscape:window-width="1280"
     inkscape:window-height="997"
     inkscape:window-x="0"
     inkscape:window-y="27"
     inkscape:window-maximized="1"
     inkscape:snap-global="true"
     inkscape:object-nodes="true" />
  <metadata
     id="metadata7">
    <rdf:RDF>
      <cc:Work
         rdf:about="">
        <dc:format>image/svg+xml</dc:format>
        <dc:type
           rdf:resource="http://purl.org/dc/dcmitype/StillImage" />
        <dc:title></dc:title>
      </cc:Work>
    </rdf:RDF>
  </metadata>
  <g
     inkscape:label="1. réteg"
     inkscape:groupmode="layer"
     id="layer1">
    <path
       sodipodi:type="arc"
       style="fill:#f8ecd3;fill-opacity:1;stroke:none"
       id="path2999"
       sodipodi:cx="173.5"
       sodipodi:cy="422.36218"
       sodipodi:rx="59.5"
       sodipodi:ry="63"
       d="m 233,422.36218 a 59.5,63 0 1 1 -119,0 59.5,63 0 1 1 119,0 z"
       transform="matrix(1.0718082,0,0,1.0122633,241.79766,199.45993)"
       inkscape:export-filename="/home/krisz/Dropbox/prog/rajzapp/img/128.png"
       inkscape:export-xdpi="90"
       inkscape:export-ydpi="90" />
    <path
       style="opacity:0.48461537;fill:none;stroke:#003384;stroke-width:4;stroke-linecap:butt;stroke-linejoin:miter;stroke-miterlimit:4;stroke-opacity:1;stroke-dasharray:none"
       d="m 427.99781,611.69181 c 1.07597,-4.54299 5.85807,-24.68758 8.57789,-31.41241 2.71982,-6.72482 2.18183,13.8382 16.04991,18.02253"
       id="path3779"
       inkscape:connector-curvature="0"
       sodipodi:nodetypes="csc"
       inkscape:export-filename="/home/krisz/Dropbox/prog/rajzapp/img/128.png"
       inkscape:export-xdpi="90"
       inkscape:export-ydpi="90" />
    <path
       transform="matrix(1.3180572,0,0,1.3180572,125.95462,41.949119)"
       d="m 225.95414,438.6994 a 2.5106018,2.5106018 0 1 1 -5.0212,0 2.5106018,2.5106018 0 1 1 5.0212,0 z"
       sodipodi:ry="2.5106018"
       sodipodi:rx="2.5106018"
       sodipodi:cy="438.6994"
       sodipodi:cx="223.44354"
       id="path3785"
       style="opacity:0.48461537;fill:#3fc4ff;fill-opacity:1;stroke:#003384;stroke-width:4;stroke-linecap:butt;stroke-linejoin:round;stroke-miterlimit:4;stroke-opacity:1;stroke-dasharray:none"
       sodipodi:type="arc"
       inkscape:export-filename="/home/krisz/Dropbox/prog/rajzapp/img/128.png"
       inkscape:export-xdpi="90"
       inkscape:export-ydpi="90" />
    <path
       style="opacity:0.48461537;fill:none;stroke:#003384;stroke-width:4;stroke-linecap:butt;stroke-linejoin:miter;stroke-miterlimit:4;stroke-opacity:1;stroke-dasharray:none"
       d="m 440.43126,604.27956 c -8.12956,-5.97762 -38.01768,-11.71614 -50.21203,-3.10836 -12.19435,8.60777 -1.67373,30.36632 0.23911,37.77857 1.91284,7.41226 5.0212,27.73618 17.69376,23.43229"
       id="path3781"
       inkscape:connector-curvature="0"
       sodipodi:nodetypes="cssc"
       inkscape:export-filename="/home/krisz/Dropbox/prog/rajzapp/img/128.png"
       inkscape:export-xdpi="90"
       inkscape:export-ydpi="90" />
    <path
       style="opacity:0.48461537;fill:none;stroke:#003384;stroke-width:4;stroke-linecap:butt;stroke-linejoin:miter;stroke-miterlimit:4;stroke-opacity:1;stroke-dasharray:none"
       d="m 366.54785,602.84493 c 8.8828,-2.40695 14.04481,-30.98125 15.24293,-28.39371 3.18482,6.87817 20.3837,28.99148 21.10101,31.02387"
       id="path3777"
       inkscape:connector-curvature="0"
       sodipodi:nodetypes="csc"
       inkscape:export-filename="/home/krisz/Dropbox/prog/rajzapp/img/128.png"
       inkscape:export-xdpi="90"
       inkscape:export-ydpi="90" />
    <path
       style="fill:#06b3ff;fill-opacity:1;stroke:none"
       d="m 466.53733,570.65039 c 9.96015,3.89434 19.24962,9.38869 25.44647,22.26017 l -50.6611,57.91268 -32.68063,11.68399 7.23416,-33.94418 z"
       id="rect2985"
       inkscape:connector-curvature="0"
       sodipodi:nodetypes="cccccc"
       inkscape:export-filename="/home/krisz/Dropbox/prog/rajzapp/img/128.png"
       inkscape:export-xdpi="90"
       inkscape:export-ydpi="90" />
    <path
       sodipodi:type="arc"
       style="opacity:0.48461537;fill:#3fc4ff;fill-opacity:1;stroke:#003384;stroke-width:4;stroke-linecap:butt;stroke-linejoin:round;stroke-miterlimit:4;stroke-opacity:1;stroke-dasharray:none"
       id="path3783"
       sodipodi:cx="223.44354"
       sodipodi:cy="438.6994"
       sodipodi:rx="2.5106018"
       sodipodi:ry="2.5106018"
       d="m 225.95414,438.6994 a 2.5106018,2.5106018 0 1 1 -5.0212,0 2.5106018,2.5106018 0 1 1 5.0212,0 z"
       transform="matrix(1.3180572,0,0,1.3180572,103.95697,40.036279)"
       inkscape:export-filename="/home/krisz/Dropbox/prog/rajzapp/img/128.png"
       inkscape:export-xdpi="90"
       inkscape:export-ydpi="90" />
    <path
       inkscape:export-ydpi="90"
       inkscape:export-xdpi="90"
       inkscape:export-filename="/home/krisz/Dropbox/prog/rajzapp/img/60.png"
       transform="matrix(0.50241009,0,0,0.47449842,90.72525,507.05859)"
       d="m 233,422.36218 a 59.5,63 0 1 1 -119,0 59.5,63 0 1 1 119,0 z"
       sodipodi:ry="63"
       sodipodi:rx="59.5"
       sodipodi:cy="422.36218"
       sodipodi:cx="173.5"
       id="path3013"
       style="fill:#f8ecd3;fill-opacity:1;stroke:none"
       sodipodi:type="arc" />
    <path
       inkscape:export-ydpi="90"
       inkscape:export-xdpi="90"
       inkscape:export-filename="/home/krisz/Dropbox/prog/rajzapp/img/60.png"
       sodipodi:nodetypes="csc"
       inkscape:connector-curvature="0"
       id="path3015"
       d="m 178.00657,700.29228 c 0.50436,-2.12953 2.74597,-11.5723 4.02088,-14.72457 1.27492,-3.15226 1.02273,6.48666 7.5234,8.44806"
       style="opacity:0.48461537;fill:none;stroke:#003384;stroke-width:1.875;stroke-linecap:butt;stroke-linejoin:miter;stroke-miterlimit:4;stroke-opacity:1;stroke-dasharray:none" />
    <path
       inkscape:export-ydpi="90"
       inkscape:export-xdpi="90"
       inkscape:export-filename="/home/krisz/Dropbox/prog/rajzapp/img/60.png"
       sodipodi:type="arc"
       style="opacity:0.48461537;fill:#3fc4ff;fill-opacity:1;stroke:#003384;stroke-width:4;stroke-linecap:butt;stroke-linejoin:round;stroke-miterlimit:4;stroke-opacity:1;stroke-dasharray:none"
       id="path3017"
       sodipodi:cx="223.44354"
       sodipodi:cy="438.6994"
       sodipodi:rx="2.5106018"
       sodipodi:ry="2.5106018"
       d="m 225.95414,438.6994 a 2.5106018,2.5106018 0 1 1 -5.0212,0 2.5106018,2.5106018 0 1 1 5.0212,0 z"
       transform="matrix(0.61783931,0,0,0.61783931,36.423824,433.2254)" />
    <path
       inkscape:export-ydpi="90"
       inkscape:export-xdpi="90"
       inkscape:export-filename="/home/krisz/Dropbox/prog/rajzapp/img/60.png"
       sodipodi:nodetypes="cssc"
       inkscape:connector-curvature="0"
       id="path3019"
       d="m 183.83475,696.81779 c -3.81074,-2.80201 -17.82079,-5.49194 -23.53689,-1.45705 -5.7161,4.0349 -0.78456,14.23422 0.11208,17.70871 0.89664,3.47449 2.35369,13.00133 8.29395,10.98388"
       style="opacity:0.48461537;fill:none;stroke:#003384;stroke-width:1.875;stroke-linecap:butt;stroke-linejoin:miter;stroke-miterlimit:4;stroke-opacity:1;stroke-dasharray:none" />
    <path
       inkscape:export-ydpi="90"
       inkscape:export-xdpi="90"
       inkscape:export-filename="/home/krisz/Dropbox/prog/rajzapp/img/60.png"
       sodipodi:nodetypes="csc"
       inkscape:connector-curvature="0"
       id="path3021"
       d="m 149.2019,696.1453 c 4.16381,-1.12825 6.5835,-14.52246 7.14512,-13.30955 1.49289,3.22414 9.55486,13.58976 9.8911,14.54244"
       style="opacity:0.48461537;fill:none;stroke:#003384;stroke-width:1.875;stroke-linecap:butt;stroke-linejoin:miter;stroke-miterlimit:4;stroke-opacity:1;stroke-dasharray:none" />
    <path
       inkscape:export-ydpi="90"
       inkscape:export-xdpi="90"
       inkscape:export-filename="/home/krisz/Dropbox/prog/rajzapp/img/60.png"
       sodipodi:nodetypes="cccccc"
       inkscape:connector-curvature="0"
       id="path3023"
       d="m 196.07197,681.05411 c 4.66882,1.82548 9.02326,4.40095 11.92803,10.43446 l -23.74739,27.14657 -15.31905,5.47687 3.39102,-15.91134 z"
       style="fill:#06b3ff;fill-opacity:1;stroke:none" />
    <path
       inkscape:export-ydpi="90"
       inkscape:export-xdpi="90"
       inkscape:export-filename="/home/krisz/Dropbox/prog/rajzapp/img/60.png"
       transform="matrix(0.61783931,0,0,0.61783931,26.112425,432.32875)"
       d="m 225.95414,438.6994 a 2.5106018,2.5106018 0 1 1 -5.0212,0 2.5106018,2.5106018 0 1 1 5.0212,0 z"
       sodipodi:ry="2.5106018"
       sodipodi:rx="2.5106018"
       sodipodi:cy="438.6994"
       sodipodi:cx="223.44354"
       id="path3025"
       style="opacity:0.48461537;fill:#3fc4ff;fill-opacity:1;stroke:#003384;stroke-width:4;stroke-linecap:butt;stroke-linejoin:round;stroke-miterlimit:4;stroke-opacity:1;stroke-dasharray:none"
       sodipodi:type="arc" />
    <path
       inkscape:export-ydpi="90"
       inkscape:export-xdpi="90"
       inkscape:export-filename="/home/krisz/Dropbox/prog/rajzapp/img/128.png"
       transform="matrix(1.0718082,0,0,1.0122633,430.8494,203.27595)"
       d="m 233,422.36218 a 59.5,63 0 1 1 -119,0 59.5,63 0 1 1 119,0 z"
       sodipodi:ry="63"
       sodipodi:rx="59.5"
       sodipodi:cy="422.36218"
       sodipodi:cx="173.5"
       id="path5353"
       style="fill:#f8ecd3;fill-opacity:1;stroke:none"
       sodipodi:type="arc" />
    <path
       style="font-size:medium;font-style:normal;font-variant:normal;font-weight:normal;font-stretch:normal;text-indent:0;text-align:start;text-decoration:none;line-height:normal;letter-spacing:normal;word-spacing:normal;text-transform:none;direction:ltr;block-progression:tb;writing-mode:lr-tb;text-anchor:start;baseline-shift:baseline;opacity:0.48461537;color:#000000;fill:#37404d;fill-opacity:1;stroke:none;stroke-width:4;marker:none;visibility:visible;display:inline;overflow:visible;enable-background:accumulate;font-family:Sans;-inkscape-font-specification:Sans"
       d="m 570.4375,576.15625 c -0.38253,0.0429 -0.72689,0.1464 -0.9375,0.28125 -0.84245,0.53939 -0.86855,0.93022 -1.0625,1.3125 -0.38791,0.76456 -0.72048,1.67221 -1.125,2.875 -0.80904,2.40557 -1.83906,5.77832 -3.09375,9.28125 -1.25469,3.50293 -2.73652,7.15319 -4.375,9.9375 -1.58445,3.1421 -1.29229,4.00561 -4.25,6.8125 3.39182,-0.1996 6.8501,-3.37604 7.6875,-4.78125 1.86513,-3.16946 3.42282,-7.00693 4.71875,-10.625 1.24388,-3.47277 2.2055,-6.67533 2.96875,-8.96875 2.38435,4.03371 5.9017,9.20423 9.71875,14.5 1.03151,1.43111 1.81822,2.51816 2.78125,3.84375 -1.95385,0.69264 -3.75222,1.59531 -5.34375,2.71875 -3.48359,2.459 -5.41079,5.97644 -6.1875,9.71875 -0.77671,3.74231 -0.5126,7.75109 0.1875,11.625 1.40021,7.74781 4.58444,15.25691 5.4375,18.5625 0.9114,3.53168 2.19422,10.63267 4.96875,16.46875 1.38726,2.91804 3.15687,5.61914 5.71875,7.34375 2.7944,0.9545 5.78439,0.85342 8.95312,-0.85938 -4.55896,-0.69356 -4.52212,-1.00743 -6.73437,-2.45312 -1.64487,-1.10729 -3.13075,-3.16726 -4.34375,-5.71875 -2.426,-5.10298 -3.68606,-11.86942 -4.6875,-15.75 -1.05978,-4.10666 -4.08528,-11.17603 -5.375,-18.3125 -0.64486,-3.56823 -0.83931,-7.10377 -0.21875,-10.09375 0.62056,-2.98998 1.98017,-5.40512 4.59375,-7.25 1.49744,-1.05702 3.40362,-1.87708 5.5625,-2.5 2.32265,3.55121 4.26169,4.38171 5.95312,5.17187 -0.20024,-3.06877 -0.42753,-4.35586 -1.54687,-5.92187 -0.0362,-0.0506 -0.0884,-0.13631 -0.125,-0.1875 4.69475,-0.71543 10.11268,-0.70966 15.40625,-0.125 4.13454,0.45665 8.18935,1.30061 11.78125,2.28125 -0.13207,3.30387 -1.09195,5.96747 -0.42188,10.17187 3.17818,-3.77678 3.73201,-6.86652 4.26563,-9.01562 3.10187,1.05636 5.59787,2.18777 7,3.21875 l 2.34375,-3.25 c -2.01545,-1.48195 -4.92942,-2.79216 -8.34375,-3.9375 0.12732,-0.49751 0.21354,-0.90376 0.34375,-1.40625 1.40184,-5.40979 2.85213,-10.22148 4.0625,-13.71875 0.32173,0.87653 0.46447,1.24484 0.90625,2.34375 2.01403,5.00985 5.66046,11.9253 13.46875,14.28125 l 1.15625,-3.8125 c -6.05979,-1.82838 -9.07355,-7.30096 -10.9375,-11.9375 -0.93198,-2.31827 -1.45515,-4.26108 -2.21875,-5.71875 -0.1909,-0.36442 -0.38635,-0.72825 -0.8125,-1.125 -0.42615,-0.39675 -1.40321,-0.82928 -2.28125,-0.59375 -0.87804,0.23553 -1.27906,0.74156 -1.5625,1.15625 -0.28344,0.41469 -0.4552,0.84665 -0.65625,1.34375 -1.46741,3.62822 -3.32345,10.31132 -5,16.78125 -0.11595,0.44747 -0.19874,0.80637 -0.3125,1.25 -3.78803,-0.99999 -7.976,-1.79884 -12.34375,-2.28125 -2.56457,-0.28325 -5.18268,-0.46678 -7.75,-0.5 -3.74705,-0.0485 -7.40486,0.20731 -10.78125,0.90625 -1.21761,-1.67698 -2.30416,-3.18661 -3.65625,-5.0625 -4.77759,-6.62841 -9.92224,-14.06498 -11.28125,-17 -0.13992,-0.30217 -0.35792,-0.78582 -1.0625,-1.125 -0.35229,-0.16959 -0.77372,-0.19913 -1.15625,-0.15625 z M 587.5,616.125 c -3.25224,0 -5.90625,2.68526 -5.90625,5.9375 0,3.25225 2.65401,5.96875 5.90625,5.96875 3.25224,0 6,-2.7165 6,-5.96875 0,-3.25224 -2.74776,-5.9375 -6,-5.9375 z m 22,1.9375 c -3.25224,0 -5.90625,2.65401 -5.90625,5.90625 0,3.25225 2.65401,5.96875 5.90625,5.96875 3.25224,0 5.96875,-2.7165 5.96875,-5.96875 0,-3.25224 -2.71651,-5.90625 -5.96875,-5.90625 z m -22,3.34375 c 0.40291,0 0.71875,0.25334 0.71875,0.65625 0,0.40292 -0.31584,0.71875 -0.71875,0.71875 -0.40292,0 -0.65625,-0.31583 -0.65625,-0.71875 0,-0.40291 0.25333,-0.65625 0.65625,-0.65625 z m 22,1.90625 c 0.40291,0 0.71875,0.25334 0.71875,0.65625 0,0.40292 -0.31584,0.71875 -0.71875,0.71875 -0.40292,0 -0.65625,-0.31583 -0.65625,-0.71875 0,-0.40291 0.25333,-0.65625 0.65625,-0.65625 z"
       id="path5355"
       inkscape:connector-curvature="0"
       sodipodi:nodetypes="ccssscccscscssssscccsssssccccsccccccscsccssssssscsscscscssssssssssssssssssss" />
    <path
       style="fill:#06b3ff;fill-opacity:1;stroke:none"
       d="m 655.58907,574.46641 c 9.96015,3.89434 19.24962,9.38869 25.44647,22.26017 l -50.6611,57.91268 -32.68063,11.68399 7.23416,-33.94418 z"
       id="rect2985-7"
       inkscape:connector-curvature="0"
       sodipodi:nodetypes="cccccc"
       inkscape:export-filename="/home/hangyas/Downloads/asdasdasd.png"
       inkscape:export-xdpi="90"
       inkscape:export-ydpi="90" />
    <path
       id="path5313"
       d="m 559.9375,421.8125 -48.625,55.5625 -31.75,19.3125 32.6875,-11.65625 50.65625,-57.9375 c -0.92898,-1.92958 -1.90893,-3.66378 -2.96875,-5.28125 z"
       style="fill:#0081b9;fill-opacity:1;stroke:none;filter:url(#filter5375)"
       clip-path="url(#clipPath5349)"
       inkscape:connector-curvature="0"
       transform="translate(118.11595,169.62063)"
       inkscape:export-filename="/home/hangyas/Downloads/asdasdasd.png"
       inkscape:export-xdpi="90"
       inkscape:export-ydpi="90" />
    <path
       style="fill:#0097da;fill-opacity:1;stroke:none"
       d="m 678.05345,591.43313 -48.625,55.5625 -31.75,19.3125 32.6875,-11.65625 50.65625,-57.9375 c -0.92898,-1.92958 -1.90893,-3.66378 -2.96875,-5.28125 z"
       id="path4537"
       inkscape:connector-curvature="0"
       inkscape:export-filename="/home/hangyas/Downloads/asdasdasd.png"
       inkscape:export-xdpi="90"
       inkscape:export-ydpi="90" />
    <path
       inkscape:export-ydpi="90"
       inkscape:export-xdpi="90"
       inkscape:export-filename="/home/krisz/Dropbox/prog/rajzapp/img/128.png"
       transform="matrix(0.22470421,0,0,0.21222065,468.44059,674.68729)"
       d="m 233,422.36218 a 59.5,63 0 1 1 -119,0 59.5,63 0 1 1 119,0 z"
       sodipodi:ry="63"
       sodipodi:rx="59.5"
       sodipodi:cy="422.36218"
       sodipodi:cx="173.5"
       id="path5451"
       style="fill:#f8ecd3;fill-opacity:1;stroke:none"
       sodipodi:type="arc" />
    <path
       inkscape:export-ydpi="90"
       inkscape:export-xdpi="90"
       inkscape:export-filename="/home/krisz/Dropbox/prog/rajzapp/img/128.png"
       sodipodi:nodetypes="csc"
       inkscape:connector-curvature="0"
       id="path5453"
       d="m 507.47739,761.11156 c 0.22558,-0.95244 1.22814,-5.17575 1.79835,-6.5856 0.57021,-1.40986 0.45742,2.90117 3.36486,3.77841"
       style="opacity:0.48461537;fill:none;stroke:#003384;stroke-width:0.83859861;stroke-linecap:butt;stroke-linejoin:miter;stroke-miterlimit:4;stroke-opacity:1;stroke-dasharray:none" />
    <path
       inkscape:export-ydpi="90"
       inkscape:export-xdpi="90"
       inkscape:export-filename="/home/krisz/Dropbox/prog/rajzapp/img/128.png"
       sodipodi:type="arc"
       style="opacity:0.48461537;fill:#3fc4ff;fill-opacity:1;stroke:#003384;stroke-width:4;stroke-linecap:butt;stroke-linejoin:round;stroke-miterlimit:4;stroke-opacity:1;stroke-dasharray:none"
       id="path5455"
       sodipodi:cx="223.44354"
       sodipodi:cy="438.6994"
       sodipodi:rx="2.5106018"
       sodipodi:ry="2.5106018"
       d="m 225.95414,438.6994 a 2.5106018,2.5106018 0 1 1 -5.0212,0 2.5106018,2.5106018 0 1 1 5.0212,0 z"
       transform="matrix(0.27633023,0,0,0.27633023,444.15414,641.6652)" />
    <path
       inkscape:export-ydpi="90"
       inkscape:export-xdpi="90"
       inkscape:export-filename="/home/krisz/Dropbox/prog/rajzapp/img/128.png"
       sodipodi:nodetypes="cssc"
       inkscape:connector-curvature="0"
       id="path5457"
       d="m 510.08406,759.55758 c -1.70436,-1.2532 -7.9704,-2.45628 -10.52694,-0.65167 -2.55654,1.80462 -0.35089,6.36629 0.0501,7.92027 0.40103,1.55398 1.0527,5.81488 3.70949,4.91257"
       style="opacity:0.48461537;fill:none;stroke:#003384;stroke-width:0.83859861;stroke-linecap:butt;stroke-linejoin:miter;stroke-miterlimit:4;stroke-opacity:1;stroke-dasharray:none" />
    <path
       inkscape:export-ydpi="90"
       inkscape:export-xdpi="90"
       inkscape:export-filename="/home/krisz/Dropbox/prog/rajzapp/img/128.png"
       sodipodi:nodetypes="csc"
       inkscape:connector-curvature="0"
       id="path5459"
       d="m 494.59443,759.25681 c 1.86227,-0.50461 2.94449,-6.49521 3.19567,-5.95273 0.6677,1.44201 4.27344,6.07805 4.42382,6.50414"
       style="opacity:0.48461537;fill:none;stroke:#003384;stroke-width:0.83859861;stroke-linecap:butt;stroke-linejoin:miter;stroke-miterlimit:4;stroke-opacity:1;stroke-dasharray:none" />
    <path
       inkscape:export-ydpi="90"
       inkscape:export-xdpi="90"
       inkscape:export-filename="/home/krisz/Dropbox/prog/rajzapp/img/128.png"
       sodipodi:nodetypes="cccccc"
       inkscape:connector-curvature="0"
       id="path5461"
       d="m 515.55719,752.50724 c 2.08814,0.81644 4.03567,1.96833 5.33484,4.66683 l -10.62108,12.14138 -6.85148,2.44954 1.51663,-7.11638 z"
       style="fill:#06b3ff;fill-opacity:1;stroke:none" />
    <path
       inkscape:export-ydpi="90"
       inkscape:export-xdpi="90"
       inkscape:export-filename="/home/krisz/Dropbox/prog/rajzapp/img/128.png"
       transform="matrix(0.27633023,0,0,0.27633023,439.54234,641.26417)"
       d="m 225.95414,438.6994 a 2.5106018,2.5106018 0 1 1 -5.0212,0 2.5106018,2.5106018 0 1 1 5.0212,0 z"
       sodipodi:ry="2.5106018"
       sodipodi:rx="2.5106018"
       sodipodi:cy="438.6994"
       sodipodi:cx="223.44354"
       id="path5463"
       style="opacity:0.48461537;fill:#3fc4ff;fill-opacity:1;stroke:#003384;stroke-width:4;stroke-linecap:butt;stroke-linejoin:round;stroke-miterlimit:4;stroke-opacity:1;stroke-dasharray:none"
       sodipodi:type="arc" />
    <path
       sodipodi:type="arc"
       style="fill:#f8ecd3;fill-opacity:1;stroke:none"
       id="path5465"
       sodipodi:cx="173.5"
       sodipodi:cy="422.36218"
       sodipodi:rx="59.5"
       sodipodi:ry="63"
       d="m 233,422.36218 a 59.5,63 0 1 1 -119,0 59.5,63 0 1 1 119,0 z"
       transform="matrix(0.22470421,0,0,0.21222065,508.07522,675.48731)"
       inkscape:export-filename="/home/krisz/Dropbox/prog/rajzapp/img/128.png"
       inkscape:export-xdpi="90"
       inkscape:export-ydpi="90" />
    <path
       sodipodi:nodetypes="ccssscccscscssssscccsssssccccsccccccscsccssssssscsscscscssssssssssssssssssss"
       inkscape:connector-curvature="0"
       id="path5467"
       d="m 537.33982,753.66154 c -0.0802,0.009 -0.15239,0.0307 -0.19655,0.059 -0.17662,0.11309 -0.18209,0.19502 -0.22275,0.27517 -0.0813,0.16029 -0.15105,0.35058 -0.23585,0.60274 -0.16962,0.50433 -0.38556,1.21142 -0.64861,1.94581 -0.26304,0.73439 -0.57371,1.49967 -0.91722,2.0834 -0.33217,0.65874 -0.27092,0.83977 -0.89101,1.42823 0.7111,-0.0418 1.43612,-0.70778 1.61169,-1.00238 0.39102,-0.66448 0.71759,-1.469 0.98928,-2.22753 0.26078,-0.72807 0.46238,-1.39948 0.6224,-1.8803 0.49988,0.84567 1.23729,1.92967 2.03753,3.03992 0.21626,0.30004 0.38119,0.52793 0.58309,0.80584 -0.40963,0.14522 -0.78665,0.33446 -1.12032,0.56999 -0.73033,0.51553 -1.13437,1.25296 -1.2972,2.03753 -0.16284,0.78458 -0.10747,1.62502 0.0393,2.43718 0.29356,1.62432 0.96113,3.1986 1.13997,3.89162 0.19108,0.74042 0.46002,2.22914 1.0417,3.45267 0.29084,0.61176 0.66184,1.17805 1.19894,1.53961 0.58584,0.20011 1.21269,0.17892 1.87701,-0.18017 -0.95578,-0.1454 -0.94806,-0.2112 -1.41185,-0.51429 -0.34485,-0.23214 -0.65637,-0.66402 -0.91067,-1.19894 -0.50861,-1.06983 -0.77278,-2.48842 -0.98273,-3.30198 -0.22219,-0.86096 -0.85648,-2.34305 -1.12687,-3.83921 -0.13519,-0.74807 -0.17596,-1.4893 -0.0459,-2.11615 0.1301,-0.62685 0.41514,-1.13318 0.96308,-1.51996 0.31394,-0.2216 0.71356,-0.39353 1.16617,-0.52412 0.48695,0.74451 0.89347,0.91862 1.24807,1.08428 -0.042,-0.64337 -0.0896,-0.91321 -0.3243,-1.24152 -0.008,-0.0106 -0.0185,-0.0286 -0.0262,-0.0393 0.98425,-0.14999 2.12012,-0.14878 3.22991,-0.0262 0.86681,0.0957 1.7169,0.27267 2.46994,0.47826 -0.0277,0.69265 -0.22893,1.25108 -0.0885,2.13253 0.6663,-0.7918 0.78241,-1.43957 0.89429,-1.89012 0.6503,0.22146 1.17359,0.45866 1.46754,0.67481 l 0.49137,-0.68137 c -0.42254,-0.31069 -1.03345,-0.58537 -1.74926,-0.82549 0.0267,-0.1043 0.0448,-0.18947 0.0721,-0.29482 0.2939,-1.13416 0.59795,-2.14293 0.85171,-2.87613 0.0675,0.18376 0.0974,0.26098 0.18999,0.49136 0.42224,1.05032 1.18671,2.50014 2.82372,2.99406 l 0.24241,-0.79929 c -1.27044,-0.38332 -1.90227,-1.53064 -2.29305,-2.50269 -0.19539,-0.48602 -0.30507,-0.89333 -0.46516,-1.19893 -0.04,-0.0764 -0.081,-0.15268 -0.17034,-0.23586 -0.0893,-0.0832 -0.29418,-0.17386 -0.47826,-0.12448 -0.18408,0.0494 -0.26816,0.15547 -0.32758,0.24241 -0.0594,0.0869 -0.0954,0.1775 -0.13758,0.28172 -0.30764,0.76065 -0.69676,2.16176 -1.04825,3.51818 -0.0243,0.0938 -0.0417,0.16905 -0.0655,0.26206 -0.79416,-0.20965 -1.67217,-0.37712 -2.58787,-0.47826 -0.53766,-0.0594 -1.08654,-0.0979 -1.62478,-0.10483 -0.78557,-0.0102 -1.55243,0.0435 -2.26029,0.19 -0.25527,-0.35158 -0.48306,-0.66807 -0.76653,-1.06135 -1.00162,-1.38965 -2.08019,-2.94872 -2.36511,-3.56405 -0.0293,-0.0634 -0.075,-0.16474 -0.22275,-0.23585 -0.0739,-0.0356 -0.16221,-0.0417 -0.24241,-0.0328 z m 3.57715,8.37943 c -0.68183,0 -1.23825,0.56297 -1.23825,1.2448 0,0.68183 0.55642,1.25134 1.23825,1.25134 0.68183,0 1.2579,-0.56951 1.2579,-1.25134 0,-0.68183 -0.57607,-1.2448 -1.2579,-1.2448 z m 4.61229,0.4062 c -0.68183,0 -1.23824,0.55641 -1.23824,1.23824 0,0.68184 0.55641,1.25135 1.23824,1.25135 0.68183,0 1.25135,-0.56951 1.25135,-1.25135 0,-0.68183 -0.56952,-1.23824 -1.25135,-1.23824 z m -4.61229,0.70102 c 0.0845,0 0.15068,0.0531 0.15068,0.13758 0,0.0845 -0.0662,0.15068 -0.15068,0.15068 -0.0845,0 -0.13758,-0.0662 -0.13758,-0.15068 0,-0.0845 0.0531,-0.13758 0.13758,-0.13758 z m 4.61229,0.39964 c 0.0845,0 0.15069,0.0531 0.15069,0.13758 0,0.0845 -0.0662,0.15069 -0.15069,0.15069 -0.0845,0 -0.13758,-0.0662 -0.13758,-0.15069 0,-0.0845 0.0531,-0.13758 0.13758,-0.13758 z"
       style="font-size:medium;font-style:normal;font-variant:normal;font-weight:normal;font-stretch:normal;text-indent:0;text-align:start;text-decoration:none;line-height:normal;letter-spacing:normal;word-spacing:normal;text-transform:none;direction:ltr;block-progression:tb;writing-mode:lr-tb;text-anchor:start;baseline-shift:baseline;opacity:0.48461537;color:#000000;fill:#37404d;fill-opacity:1;stroke:none;stroke-width:4;marker:none;visibility:visible;display:inline;overflow:visible;enable-background:accumulate;font-family:Sans;-inkscape-font-specification:Sans" />
    <path
       inkscape:export-ydpi="90"
       inkscape:export-xdpi="90"
       inkscape:export-filename="/home/hangyas/Downloads/asdasdasd.png"
       sodipodi:nodetypes="cccccc"
       inkscape:connector-curvature="0"
       id="path5469"
       d="m 555.19182,753.30726 c 2.08814,0.81645 4.03567,1.96834 5.33484,4.66684 l -10.62108,12.14137 -6.85148,2.44955 1.51664,-7.11639 z"
       style="fill:#06b3ff;fill-opacity:1;stroke:none" />
    <path
       inkscape:export-ydpi="90"
       inkscape:export-xdpi="90"
       inkscape:export-filename="/home/hangyas/Downloads/asdasdasd.png"
       transform="matrix(0.20964965,0,0,0.20964965,442.51077,668.43149)"
       inkscape:connector-curvature="0"
       clip-path="url(#clipPath5349)"
       style="fill:#0081b9;fill-opacity:1;stroke:none;filter:url(#filter5375)"
       d="m 559.9375,421.8125 -48.625,55.5625 -31.75,19.3125 32.6875,-11.65625 50.65625,-57.9375 c -0.92898,-1.92958 -1.90893,-3.66378 -2.96875,-5.28125 z"
       id="path5471" />
    <path
       inkscape:export-ydpi="90"
       inkscape:export-xdpi="90"
       inkscape:export-filename="/home/hangyas/Downloads/asdasdasd.png"
       inkscape:connector-curvature="0"
       id="path5473"
       d="m 559.90147,756.86433 -10.19422,11.64866 -6.65637,4.04886 6.85292,-2.44373 10.62006,-12.14658 c -0.19476,-0.40453 -0.4002,-0.76811 -0.62239,-1.10721 z"
       style="fill:#0097da;fill-opacity:1;stroke:none" />
    <path
       inkscape:export-ydpi="90"
       inkscape:export-xdpi="90"
       inkscape:export-filename="/home/hangyas/Dropbox/prog/antpaint/img/128.png"
       transform="matrix(1.0718082,0,0,1.0122633,57.813865,-39.952142)"
       d="m 233,422.36218 a 59.5,63 0 1 1 -119,0 59.5,63 0 1 1 119,0 z"
       sodipodi:ry="63"
       sodipodi:rx="59.5"
       sodipodi:cy="422.36218"
       sodipodi:cx="173.5"
       id="path5503"
       style="fill:#f8ecd3;fill-opacity:1;stroke:none"
       sodipodi:type="arc" />
    <path
       inkscape:connector-curvature="0"
       id="path5505"
       d="m 295.32433,350.05395 -58.40625,47.25 -12.9375,32.21875 34.1875,-5.9375 49.25,-39.84375 c -0.74671,-12.55633 -5.11763,-24.12396 -12.09375,-33.6875 z"
       style="fill:#000000;fill-opacity:0.13302756;stroke:none"
       inkscape:export-filename="/home/hangyas/Dropbox/prog/antpaint/img/128.png"
       inkscape:export-xdpi="90"
       inkscape:export-ydpi="90" />
    <path
       style="font-size:medium;font-style:normal;font-variant:normal;font-weight:normal;font-stretch:normal;text-indent:0;text-align:start;text-decoration:none;line-height:normal;letter-spacing:normal;word-spacing:normal;text-transform:none;direction:ltr;block-progression:tb;writing-mode:lr-tb;text-anchor:start;baseline-shift:baseline;opacity:0.48461537;color:#000000;fill:#37404d;fill-opacity:1;stroke:none;stroke-width:4;marker:none;visibility:visible;display:inline;overflow:visible;enable-background:accumulate;font-family:Sans;-inkscape-font-specification:Sans"
       d="m 196.72567,339.35292 c -0.38253,0.0429 -0.72689,0.1464 -0.9375,0.28125 -0.84245,0.53939 -0.86855,0.93022 -1.0625,1.3125 -0.38791,0.76456 -0.72048,1.67221 -1.125,2.875 -0.80904,2.40557 -1.83906,5.77832 -3.09375,9.28125 -1.25469,3.50293 -2.73652,7.15319 -4.375,9.9375 -1.58445,3.1421 -1.29229,4.00561 -4.25,6.8125 3.39182,-0.1996 6.8501,-3.37604 7.6875,-4.78125 1.86513,-3.16946 3.42282,-7.00693 4.71875,-10.625 1.24388,-3.47277 2.2055,-6.67533 2.96875,-8.96875 2.38435,4.03371 5.9017,9.20423 9.71875,14.5 1.03151,1.43111 1.81822,2.51816 2.78125,3.84375 -1.95385,0.69264 -3.75222,1.59531 -5.34375,2.71875 -3.48359,2.459 -5.41079,5.97644 -6.1875,9.71875 -0.77671,3.74231 -0.5126,7.75109 0.1875,11.625 1.40021,7.74781 4.58444,15.25691 5.4375,18.5625 0.9114,3.53168 2.19422,10.63267 4.96875,16.46875 1.38726,2.91804 3.15687,5.61914 5.71875,7.34375 2.7944,0.9545 5.78439,0.85342 8.95312,-0.85938 -4.55896,-0.69356 -4.52212,-1.00743 -6.73437,-2.45312 -1.64487,-1.10729 -3.13075,-3.16726 -4.34375,-5.71875 -2.426,-5.10298 -3.68606,-11.86942 -4.6875,-15.75 -1.05978,-4.10666 -4.08528,-11.17603 -5.375,-18.3125 -0.64486,-3.56823 -0.83931,-7.10377 -0.21875,-10.09375 0.62056,-2.98998 1.98017,-5.40512 4.59375,-7.25 1.49744,-1.05702 3.40362,-1.87708 5.5625,-2.5 2.32265,3.55121 4.26169,4.38171 5.95312,5.17187 -0.20024,-3.06877 -0.42753,-4.35586 -1.54687,-5.92187 -0.0362,-0.0506 -0.0884,-0.13631 -0.125,-0.1875 4.69475,-0.71543 10.11268,-0.70966 15.40625,-0.125 4.13454,0.45665 8.18935,1.30061 11.78125,2.28125 -0.13207,3.30387 -1.09195,5.96747 -0.42188,10.17187 3.17818,-3.77678 3.73201,-6.86652 4.26563,-9.01562 3.10187,1.05636 5.59787,2.18777 7,3.21875 l 2.34375,-3.25 c -2.01545,-1.48195 -4.92942,-2.79216 -8.34375,-3.9375 0.12732,-0.49751 0.21354,-0.90376 0.34375,-1.40625 1.40184,-5.40979 2.85213,-10.22148 4.0625,-13.71875 0.32173,0.87653 0.46447,1.24484 0.90625,2.34375 2.01403,5.00985 5.66046,11.9253 13.46875,14.28125 l 1.15625,-3.8125 c -6.05979,-1.82838 -9.07355,-7.30096 -10.9375,-11.9375 -0.93198,-2.31827 -1.45515,-4.26108 -2.21875,-5.71875 -0.1909,-0.36442 -0.38635,-0.72825 -0.8125,-1.125 -0.42615,-0.39675 -1.40321,-0.82928 -2.28125,-0.59375 -0.87804,0.23553 -1.27906,0.74156 -1.5625,1.15625 -0.28344,0.41469 -0.4552,0.84665 -0.65625,1.34375 -1.46741,3.62822 -3.32345,10.31132 -5,16.78125 -0.11595,0.44747 -0.19874,0.80637 -0.3125,1.25 -3.78803,-0.99999 -7.976,-1.79884 -12.34375,-2.28125 -2.56457,-0.28325 -5.18268,-0.46678 -7.75,-0.5 -3.74705,-0.0485 -7.40486,0.20731 -10.78125,0.90625 -1.21761,-1.67698 -2.30416,-3.18661 -3.65625,-5.0625 -4.77759,-6.62841 -9.92224,-14.06498 -11.28125,-17 -0.13992,-0.30217 -0.35792,-0.78582 -1.0625,-1.125 -0.35229,-0.16959 -0.77372,-0.19913 -1.15625,-0.15625 z m 17.0625,39.96875 c -3.25224,0 -5.90625,2.68526 -5.90625,5.9375 0,3.25225 2.65401,5.96875 5.90625,5.96875 3.25224,0 6,-2.7165 6,-5.96875 0,-3.25224 -2.74776,-5.9375 -6,-5.9375 z m 22,1.9375 c -3.25224,0 -5.90625,2.65401 -5.90625,5.90625 0,3.25225 2.65401,5.96875 5.90625,5.96875 3.25224,0 5.96875,-2.7165 5.96875,-5.96875 0,-3.25224 -2.71651,-5.90625 -5.96875,-5.90625 z m -22,3.34375 c 0.40291,0 0.71875,0.25334 0.71875,0.65625 0,0.40292 -0.31584,0.71875 -0.71875,0.71875 -0.40292,0 -0.65625,-0.31583 -0.65625,-0.71875 0,-0.40291 0.25333,-0.65625 0.65625,-0.65625 z m 22,1.90625 c 0.40291,0 0.71875,0.25334 0.71875,0.65625 0,0.40292 -0.31584,0.71875 -0.71875,0.71875 -0.40292,0 -0.65625,-0.31583 -0.65625,-0.71875 0,-0.40291 0.25333,-0.65625 0.65625,-0.65625 z"
       id="path5507"
       inkscape:connector-curvature="0"
       sodipodi:nodetypes="ccssscccscscssssscccsssssccccsccccccscsccssssssscsscscscssssssssssssssssssss"
       inkscape:export-filename="/home/hangyas/Dropbox/prog/antpaint/img/128.png"
       inkscape:export-xdpi="90"
       inkscape:export-ydpi="90" />
    <path
       style="fill:#06b3ff;fill-opacity:1;stroke:none"
       d="m 277.81246,335.03293 c 9.96015,3.89434 23.3144,12.01884 29.51125,24.89032 l -50.6611,57.91268 -32.68063,11.68399 7.23416,-33.94418 z"
       id="path5509"
       inkscape:connector-curvature="0"
       sodipodi:nodetypes="cccccc"
       inkscape:export-filename="/home/hangyas/Dropbox/prog/antpaint/img/128.png"
       inkscape:export-xdpi="90"
       inkscape:export-ydpi="90" />
    <path
       sodipodi:type="arc"
       style="fill:#f8ecd3;fill-opacity:1;stroke:none"
       id="path5511"
       sodipodi:cx="173.5"
       sodipodi:cy="422.36218"
       sodipodi:rx="59.5"
       sodipodi:ry="63"
       d="m 233,422.36218 a 59.5,63 0 1 1 -119,0 59.5,63 0 1 1 119,0 z"
       transform="matrix(0.50420168,0,0,0.47619047,49.521008,410.23733)"
       inkscape:export-filename="/home/hangyas/Dropbox/prog/antpaint/img/60.png"
       inkscape:export-xdpi="90"
       inkscape:export-ydpi="90" />
    <path
       inkscape:export-ydpi="90"
       inkscape:export-xdpi="90"
       inkscape:export-filename="/home/hangyas/Dropbox/prog/antpaint/img/60.png"
       style="fill:#000000;fill-opacity:0.13302756;stroke:none"
       d="m 161.25105,593.70461 -27.47556,22.22742 -6.08608,15.1564 16.08254,-2.79314 23.16826,-18.74336 c -0.35127,-5.90676 -2.40744,-11.34842 -5.68916,-15.84732 z"
       id="path5513"
       inkscape:connector-curvature="0" />
    <path
       inkscape:export-ydpi="90"
       inkscape:export-xdpi="90"
       inkscape:export-filename="/home/hangyas/Dropbox/prog/antpaint/img/60.png"
       sodipodi:nodetypes="ccssscccscscssssscccsssssccccsccccccscsccssssssscsscscscssssssssssssssssssss"
       inkscape:connector-curvature="0"
       id="path5515"
       d="m 114.86811,588.67061 c -0.17994,0.0202 -0.34194,0.0689 -0.44102,0.13231 -0.3963,0.25374 -0.40858,0.4376 -0.49982,0.61743 -0.18248,0.35966 -0.33893,0.78664 -0.52922,1.35246 -0.38059,1.13164 -0.86514,2.71825 -1.45537,4.3661 -0.59023,1.64786 -1.28731,3.36502 -2.05809,4.67482 -0.74536,1.47811 -0.60792,1.88432 -1.9993,3.20474 1.59559,-0.0939 3.22244,-1.58816 3.61637,-2.2492 0.8774,-1.49098 1.61017,-3.29621 2.2198,-4.99823 0.58515,-1.63367 1.03752,-3.14022 1.39657,-4.21909 1.12165,1.89754 2.77628,4.32986 4.5719,6.82111 0.48525,0.67323 0.85534,1.18459 1.30836,1.80818 -0.91912,0.32583 -1.76512,0.75047 -2.51381,1.27896 -1.63875,1.15677 -2.54535,2.81145 -2.91073,4.57191 -0.36538,1.76046 -0.24114,3.64628 0.0882,5.46865 0.65869,3.64474 2.15662,7.17718 2.55792,8.7322 0.42874,1.66138 1.03221,5.00184 2.3374,7.74725 0.6526,1.37272 1.48506,2.64337 2.69023,3.45466 1.31455,0.44902 2.7211,0.40147 4.21174,-0.40426 -2.14463,-0.32627 -2.1273,-0.47392 -3.16799,-1.154 -0.77378,-0.5209 -1.47278,-1.48996 -2.0434,-2.69023 -1.14124,-2.40055 -1.734,-5.58363 -2.2051,-7.40914 -0.49854,-1.93186 -1.9218,-5.25745 -2.52851,-8.61459 -0.30336,-1.67858 -0.39483,-3.34177 -0.10291,-4.74832 0.29193,-1.40655 0.93152,-2.54268 2.161,-3.41056 0.70443,-0.49724 1.60114,-0.88302 2.61672,-1.17605 1.09262,1.67057 2.00479,2.06125 2.80048,2.43296 -0.0942,-1.44362 -0.20112,-2.04909 -0.72768,-2.78578 -0.017,-0.0238 -0.0416,-0.0641 -0.0588,-0.0882 2.2085,-0.33655 4.75722,-0.33384 7.24742,-0.0588 1.94498,0.21482 3.85245,0.61184 5.54216,1.07315 -0.0621,1.55421 -0.51368,2.80723 -0.19846,4.78507 1.49508,-1.77668 1.75562,-3.23016 2.00664,-4.24115 1.45919,0.49694 2.63336,1.02918 3.29295,1.51418 l 1.10255,-1.52888 c -0.94811,-0.69714 -2.3189,-1.31349 -3.92508,-1.85228 0.0599,-0.23404 0.10046,-0.42515 0.16171,-0.66153 0.65946,-2.54488 1.34171,-4.80841 1.91109,-6.45359 0.15135,0.41233 0.2185,0.5856 0.42632,1.10254 0.94744,2.35674 2.6628,5.60992 6.33599,6.71821 l 0.54393,-1.79348 c -2.85066,-0.86011 -4.2684,-3.43453 -5.14524,-5.61566 -0.43842,-1.09056 -0.68454,-2.0045 -1.04375,-2.69022 -0.0898,-0.17143 -0.18175,-0.34259 -0.38222,-0.52923 -0.20047,-0.18664 -0.6601,-0.3901 -1.07315,-0.27931 -0.41304,0.1108 -0.6017,0.34885 -0.73503,0.54393 -0.13333,0.19508 -0.21413,0.39828 -0.30871,0.63213 -0.6903,1.70679 -1.56343,4.85067 -2.35211,7.89426 -0.0545,0.2105 -0.0935,0.37933 -0.14701,0.58803 -1.78197,-0.47042 -3.75208,-0.84622 -5.80676,-1.07316 -1.20644,-0.13324 -2.43805,-0.21958 -3.64577,-0.2352 -1.76269,-0.0228 -3.48341,0.0975 -5.07173,0.42632 -0.5728,-0.78889 -1.08393,-1.49906 -1.71998,-2.38152 -2.24748,-3.11814 -4.66764,-6.61646 -5.30694,-7.99716 -0.0658,-0.14215 -0.16838,-0.36967 -0.49983,-0.52922 -0.16573,-0.0798 -0.36397,-0.0937 -0.54393,-0.0735 z m 8.02658,18.80217 c -1.52993,0 -2.77844,1.2632 -2.77844,2.79313 0,1.52992 1.24851,2.80782 2.77844,2.80782 1.52992,0 2.82252,-1.2779 2.82252,-2.80782 0,-1.52993 -1.2926,-2.79313 -2.82252,-2.79313 z m 10.34927,0.91144 c -1.52993,0 -2.77843,1.2485 -2.77843,2.77843 0,1.52992 1.2485,2.80782 2.77843,2.80782 1.52992,0 2.80783,-1.2779 2.80783,-2.80782 0,-1.52993 -1.27791,-2.77843 -2.80783,-2.77843 z m -10.34927,1.57297 c 0.18953,0 0.33811,0.11918 0.33811,0.30872 0,0.18954 -0.14858,0.33811 -0.33811,0.33811 -0.18955,0 -0.30872,-0.14857 -0.30872,-0.33811 0,-0.18954 0.11917,-0.30872 0.30872,-0.30872 z m 10.34927,0.89674 c 0.18953,0 0.33811,0.11918 0.33811,0.30872 0,0.18954 -0.14858,0.33811 -0.33811,0.33811 -0.18955,0 -0.30871,-0.14857 -0.30871,-0.33811 0,-0.18954 0.11916,-0.30872 0.30871,-0.30872 z"
       style="font-size:medium;font-style:normal;font-variant:normal;font-weight:normal;font-stretch:normal;text-indent:0;text-align:start;text-decoration:none;line-height:normal;letter-spacing:normal;word-spacing:normal;text-transform:none;direction:ltr;block-progression:tb;writing-mode:lr-tb;text-anchor:start;baseline-shift:baseline;opacity:0.48461537;color:#000000;fill:#37404d;fill-opacity:1;stroke:none;stroke-width:4;marker:none;visibility:visible;display:inline;overflow:visible;enable-background:accumulate;font-family:Sans;-inkscape-font-specification:Sans" />
    <path
       inkscape:export-ydpi="90"
       inkscape:export-xdpi="90"
       inkscape:export-filename="/home/hangyas/Dropbox/prog/antpaint/img/60.png"
       sodipodi:nodetypes="cccccc"
       inkscape:connector-curvature="0"
       id="path5517"
       d="m 153.01309,586.6384 c 4.68547,1.83198 10.9676,5.65392 13.88273,11.70894 l -23.83207,27.24337 -15.37368,5.4964 3.4031,-15.96807 z"
       style="fill:#06b3ff;fill-opacity:1;stroke:none" />
  </g>
</svg>
